<svg width="1200" height="708" viewBox="0 0 1200 708" fill="none" xmlns="http://www.w3.org/2000/svg">
<g opacity="0.15">
<path fill-rule="evenodd" clip-rule="evenodd" d="M257.143 107.235H278.571V85.7882H257.143V107.235Z" fill="black"/>
<path fill-rule="evenodd" clip-rule="evenodd" d="M214.286 107.235H235.714V85.7882H214.286V107.235Z" fill="black"/>
<path fill-rule="evenodd" clip-rule="evenodd" d="M171.429 107.235H192.857V85.7882H171.429V107.235Z" fill="black"/>
<path fill-rule="evenodd" clip-rule="evenodd" d="M235.714 128.682H257.143V107.235H235.714V128.682Z" fill="black"/>
<path fill-rule="evenodd" clip-rule="evenodd" d="M192.857 128.682H214.286V107.235H192.857V128.682Z" fill="black"/>
<path fill-rule="evenodd" clip-rule="evenodd" d="M150 128.682H171.429V107.235H150V128.682Z" fill="black"/>
<path fill-rule="evenodd" clip-rule="evenodd" d="M278.571 128.682H300V107.235H278.571V128.682Z" fill="black"/>
<path fill-rule="evenodd" clip-rule="evenodd" d="M257.143 64.3412H278.571V42.8941H257.143V64.3412Z" fill="black"/>
<path fill-rule="evenodd" clip-rule="evenodd" d="M235.714 85.7882H257.143V64.3412H235.714V85.7882Z" fill="black"/>
<path fill-rule="evenodd" clip-rule="evenodd" d="M278.571 85.7882H300V64.3412H278.571V85.7882Z" fill="black"/>
<path fill-rule="evenodd" clip-rule="evenodd" d="M214.286 193.023H235.714V171.576H214.286V193.023Z" fill="black"/>
<path fill-rule="evenodd" clip-rule="evenodd" d="M171.429 193.023H192.857V171.576H171.429V193.023Z" fill="black"/>
<path fill-rule="evenodd" clip-rule="evenodd" d="M128.571 193.023H150V171.576H128.571V193.023Z" fill="black"/>
<path fill-rule="evenodd" clip-rule="evenodd" d="M235.714 214.471H257.143V193.023H235.714V214.471Z" fill="black"/>
<path fill-rule="evenodd" clip-rule="evenodd" d="M192.857 214.471H214.286V193.023H192.857V214.471Z" fill="black"/>
<path fill-rule="evenodd" clip-rule="evenodd" d="M150 214.471H171.429V193.023H150V214.471Z" fill="black"/>
<path fill-rule="evenodd" clip-rule="evenodd" d="M107.143 214.471H128.571V193.023H107.143V214.471Z" fill="black"/>
<path fill-rule="evenodd" clip-rule="evenodd" d="M278.571 214.471H300V193.023H278.571V214.471Z" fill="black"/>
<path fill-rule="evenodd" clip-rule="evenodd" d="M85.7143 193.023H107.143V171.576H85.7143V193.023Z" fill="black"/>
<path fill-rule="evenodd" clip-rule="evenodd" d="M42.8571 193.023H64.2857V171.576H42.8571V193.023Z" fill="black"/>
<path fill-rule="evenodd" clip-rule="evenodd" d="M64.2857 214.471H85.7143V193.023H64.2857V214.471Z" fill="black"/>
<path fill-rule="evenodd" clip-rule="evenodd" d="M257.143 150.129H278.571V128.682H257.143V150.129Z" fill="black"/>
<path fill-rule="evenodd" clip-rule="evenodd" d="M214.286 150.129H235.714V128.682H214.286V150.129Z" fill="black"/>
<path fill-rule="evenodd" clip-rule="evenodd" d="M171.429 150.129H192.857V128.682H171.429V150.129Z" fill="black"/>
<path fill-rule="evenodd" clip-rule="evenodd" d="M235.714 171.576H257.143V150.129H235.714V171.576Z" fill="black"/>
<path fill-rule="evenodd" clip-rule="evenodd" d="M192.857 171.576H214.286V150.129H192.857V171.576Z" fill="black"/>
<path fill-rule="evenodd" clip-rule="evenodd" d="M150 171.576H171.429V150.129H150V171.576Z" fill="black"/>
<path fill-rule="evenodd" clip-rule="evenodd" d="M107.143 171.576H128.571V150.129H107.143V171.576Z" fill="black"/>
<path fill-rule="evenodd" clip-rule="evenodd" d="M300 171.576H278.571V150.129L300 171.576Z" fill="black"/>
<path fill-rule="evenodd" clip-rule="evenodd" d="M85.7143 150.129H107.143V128.682H85.7143V150.129Z" fill="black"/>
<path fill-rule="evenodd" clip-rule="evenodd" d="M42.8571 150.129H64.2857V128.682H42.8571V150.129Z" fill="black"/>
<path fill-rule="evenodd" clip-rule="evenodd" d="M64.2857 171.576H85.7143V150.129H64.2857V171.576Z" fill="black"/>
<path fill-rule="evenodd" clip-rule="evenodd" d="M257.143 278.812H278.571V257.365H257.143V278.812Z" fill="black"/>
<path fill-rule="evenodd" clip-rule="evenodd" d="M214.286 278.812H235.714V257.365H214.286V278.812Z" fill="black"/>
<path fill-rule="evenodd" clip-rule="evenodd" d="M171.429 278.812H192.857V257.365H171.429V278.812Z" fill="black"/>
<path fill-rule="evenodd" clip-rule="evenodd" d="M128.571 278.812H150V257.365H128.571V278.812Z" fill="black"/>
<path fill-rule="evenodd" clip-rule="evenodd" d="M235.714 300.259H257.143V278.812H235.714V300.259Z" fill="black"/>
<path fill-rule="evenodd" clip-rule="evenodd" d="M192.857 300.259H214.286V278.812H192.857V300.259Z" fill="black"/>
<path fill-rule="evenodd" clip-rule="evenodd" d="M150 300.259H171.429V278.812H150V300.259Z" fill="black"/>
<path fill-rule="evenodd" clip-rule="evenodd" d="M278.571 300.259H300V278.812H278.571V300.259Z" fill="black"/>
<path fill-rule="evenodd" clip-rule="evenodd" d="M214.286 235.918H235.714V214.471H214.286V235.918Z" fill="black"/>
<path fill-rule="evenodd" clip-rule="evenodd" d="M171.429 235.918H192.857V214.471H171.429V235.918Z" fill="black"/>
<path fill-rule="evenodd" clip-rule="evenodd" d="M128.571 235.918H150V214.471H128.571V235.918Z" fill="black"/>
<path fill-rule="evenodd" clip-rule="evenodd" d="M257.143 257.365H235.714V235.918L257.143 257.365Z" fill="black"/>
<path fill-rule="evenodd" clip-rule="evenodd" d="M192.857 257.365H214.286V235.918H192.857V257.365Z" fill="black"/>
<path fill-rule="evenodd" clip-rule="evenodd" d="M150 257.365H171.429V235.918H150V257.365Z" fill="black"/>
<path fill-rule="evenodd" clip-rule="evenodd" d="M107.143 257.365H128.571V235.918H107.143V257.365Z" fill="black"/>
<path fill-rule="evenodd" clip-rule="evenodd" d="M278.571 257.365H300V235.918H278.571V257.365Z" fill="black"/>
<path fill-rule="evenodd" clip-rule="evenodd" d="M278.571 364.6L257.143 343.153H278.571V364.6Z" fill="black"/>
<path fill-rule="evenodd" clip-rule="evenodd" d="M214.286 364.6H235.714V343.153H214.286V364.6Z" fill="black"/>
<path fill-rule="evenodd" clip-rule="evenodd" d="M171.429 364.6H192.857V343.153H171.429V364.6Z" fill="black"/>
<path fill-rule="evenodd" clip-rule="evenodd" d="M257.143 407.494H278.571V386.047H257.143V407.494Z" fill="black"/>
<path fill-rule="evenodd" clip-rule="evenodd" d="M278.571 386.047H300V364.6H278.571V386.047Z" fill="black"/>
<path fill-rule="evenodd" clip-rule="evenodd" d="M257.143 321.706H278.571V300.259H257.143V321.706Z" fill="black"/>
<path fill-rule="evenodd" clip-rule="evenodd" d="M214.286 321.706H235.714V300.259H214.286V321.706Z" fill="black"/>
<path fill-rule="evenodd" clip-rule="evenodd" d="M235.714 343.153H257.143V321.706H235.714V343.153Z" fill="black"/>
<path fill-rule="evenodd" clip-rule="evenodd" d="M192.857 343.153H214.286V321.706H192.857V343.153Z" fill="black"/>
<path fill-rule="evenodd" clip-rule="evenodd" d="M150 343.153H171.429V321.706H150V343.153Z" fill="black"/>
<path fill-rule="evenodd" clip-rule="evenodd" d="M278.571 343.153H300V321.706H278.571V343.153Z" fill="black"/>
<path fill-rule="evenodd" clip-rule="evenodd" d="M300 193.023H321.429V171.576H300V193.023Z" fill="black"/>
<path fill-rule="evenodd" clip-rule="evenodd" d="M321.429 214.471H342.857V193.023H321.429V214.471Z" fill="black"/>
<path fill-rule="evenodd" clip-rule="evenodd" d="M300 278.812H321.429V257.365H300V278.812Z" fill="black"/>
<path fill-rule="evenodd" clip-rule="evenodd" d="M321.429 300.259H342.857V278.812H321.429V300.259Z" fill="black"/>
<path fill-rule="evenodd" clip-rule="evenodd" d="M342.857 235.918H364.286V214.471H342.857V235.918Z" fill="black"/>
<path fill-rule="evenodd" clip-rule="evenodd" d="M300 235.918H321.429V214.471H300V235.918Z" fill="black"/>
<path fill-rule="evenodd" clip-rule="evenodd" d="M321.429 257.365H342.857V235.918H321.429V257.365Z" fill="black"/>
<path fill-rule="evenodd" clip-rule="evenodd" d="M192.857 386.047H214.286V364.6H192.857V386.047Z" fill="black"/>
<path fill-rule="evenodd" clip-rule="evenodd" d="M171.429 321.706H192.857V300.259H171.429V321.706Z" fill="black"/>
<path fill-rule="evenodd" clip-rule="evenodd" d="M85.7143 235.918H107.143V214.471H85.7143V235.918Z" fill="black"/>
<path fill-rule="evenodd" clip-rule="evenodd" d="M21.4286 214.471H42.8572V193.023H21.4286V214.471Z" fill="black"/>
<path fill-rule="evenodd" clip-rule="evenodd" d="M21.4286 171.576H42.8572V150.129H21.4286V171.576Z" fill="black"/>
<path fill-rule="evenodd" clip-rule="evenodd" d="M128.571 150.129H150V128.682H128.571V150.129Z" fill="black"/>
<path fill-rule="evenodd" clip-rule="evenodd" d="M214.286 407.494H235.714V386.047H214.286V407.494Z" fill="black"/>
<path fill-rule="evenodd" clip-rule="evenodd" d="M257.143 428.941L235.714 407.494H257.143V428.941Z" fill="black"/>
<path fill-rule="evenodd" clip-rule="evenodd" d="M278.571 107.235H300V85.7882H278.571V107.235Z" fill="#161616"/>
<path fill-rule="evenodd" clip-rule="evenodd" d="M235.714 107.235H257.143V85.7882H235.714V107.235Z" fill="#161616"/>
<path fill-rule="evenodd" clip-rule="evenodd" d="M192.857 107.235H214.286V85.7882H192.857V107.235Z" fill="#161616"/>
<path fill-rule="evenodd" clip-rule="evenodd" d="M150 107.235H171.429V85.7882H150V107.235Z" fill="#161616"/>
<path fill-rule="evenodd" clip-rule="evenodd" d="M257.143 128.682H278.571V107.235H257.143V128.682Z" fill="#161616"/>
<path fill-rule="evenodd" clip-rule="evenodd" d="M214.286 128.682H235.714V107.235H214.286V128.682Z" fill="#161616"/>
<path fill-rule="evenodd" clip-rule="evenodd" d="M171.429 128.682H192.857V107.235H171.429V128.682Z" fill="#161616"/>
<path fill-rule="evenodd" clip-rule="evenodd" d="M278.571 64.3412H300V42.8941H278.571V64.3412Z" fill="#161616"/>
<path fill-rule="evenodd" clip-rule="evenodd" d="M257.143 85.7882H278.571V64.3412H257.143V85.7882Z" fill="#161616"/>
<path fill-rule="evenodd" clip-rule="evenodd" d="M278.571 193.023H300V171.576H278.571V193.023Z" fill="#161616"/>
<path fill-rule="evenodd" clip-rule="evenodd" d="M235.714 193.023H257.143V171.576H235.714V193.023Z" fill="#161616"/>
<path fill-rule="evenodd" clip-rule="evenodd" d="M192.857 193.023H214.286V171.576H192.857V193.023Z" fill="#161616"/>
<path fill-rule="evenodd" clip-rule="evenodd" d="M150 193.023H171.429V171.576H150V193.023Z" fill="#161616"/>
<path fill-rule="evenodd" clip-rule="evenodd" d="M214.286 214.471H235.714V193.023H214.286V214.471Z" fill="#161616"/>
<path fill-rule="evenodd" clip-rule="evenodd" d="M171.429 214.471H192.857V193.023H171.429V214.471Z" fill="#161616"/>
<path fill-rule="evenodd" clip-rule="evenodd" d="M128.571 214.471H150V193.023H128.571V214.471Z" fill="#161616"/>
<path fill-rule="evenodd" clip-rule="evenodd" d="M107.143 193.023H128.571V171.576H107.143V193.023Z" fill="#161616"/>
<path fill-rule="evenodd" clip-rule="evenodd" d="M64.2857 193.023H85.7143V171.576H64.2857V193.023Z" fill="#161616"/>
<path fill-rule="evenodd" clip-rule="evenodd" d="M85.7143 214.471H107.143V193.023H85.7143V214.471Z" fill="#161616"/>
<path fill-rule="evenodd" clip-rule="evenodd" d="M42.8571 214.471H64.2857V193.023H42.8571V214.471Z" fill="#161616"/>
<path fill-rule="evenodd" clip-rule="evenodd" d="M235.714 150.129H257.143V128.682H235.714V150.129Z" fill="#161616"/>
<path fill-rule="evenodd" clip-rule="evenodd" d="M192.857 150.129H214.286V128.682H192.857V150.129Z" fill="#161616"/>
<path fill-rule="evenodd" clip-rule="evenodd" d="M150 150.129H171.429V128.682H150V150.129Z" fill="#161616"/>
<path fill-rule="evenodd" clip-rule="evenodd" d="M257.143 171.576H278.571V150.129H257.143V171.576Z" fill="#161616"/>
<path fill-rule="evenodd" clip-rule="evenodd" d="M214.286 171.576H235.714V150.129H214.286V171.576Z" fill="#161616"/>
<path fill-rule="evenodd" clip-rule="evenodd" d="M171.429 171.576H192.857V150.129H171.429V171.576Z" fill="#161616"/>
<path fill-rule="evenodd" clip-rule="evenodd" d="M128.571 171.576H150V150.129H128.571V171.576Z" fill="#161616"/>
<path fill-rule="evenodd" clip-rule="evenodd" d="M64.2857 150.129H85.7143V128.682H64.2857V150.129Z" fill="#161616"/>
<path fill-rule="evenodd" clip-rule="evenodd" d="M85.7143 171.576H107.143V150.129H85.7143V171.576Z" fill="#161616"/>
<path fill-rule="evenodd" clip-rule="evenodd" d="M42.8571 171.576H64.2857V150.129H42.8571V171.576Z" fill="#161616"/>
<path fill-rule="evenodd" clip-rule="evenodd" d="M278.571 278.812H300V257.365H278.571V278.812Z" fill="#161616"/>
<path fill-rule="evenodd" clip-rule="evenodd" d="M235.714 278.812H257.143V257.365H235.714V278.812Z" fill="#161616"/>
<path fill-rule="evenodd" clip-rule="evenodd" d="M192.857 278.812H214.286V257.365H192.857V278.812Z" fill="#161616"/>
<path fill-rule="evenodd" clip-rule="evenodd" d="M257.143 300.259H278.571V278.812H257.143V300.259Z" fill="#161616"/>
<path fill-rule="evenodd" clip-rule="evenodd" d="M214.286 300.259H235.714V278.812H214.286V300.259Z" fill="#161616"/>
<path fill-rule="evenodd" clip-rule="evenodd" d="M150 300.259L128.571 278.812H150V300.259Z" fill="#161616"/>
<path fill-rule="evenodd" clip-rule="evenodd" d="M278.571 235.918H300V214.471H278.571V235.918Z" fill="#161616"/>
<path fill-rule="evenodd" clip-rule="evenodd" d="M235.714 235.918V214.471H257.143L235.714 235.918Z" fill="#161616"/>
<path fill-rule="evenodd" clip-rule="evenodd" d="M192.857 235.918H214.286V214.471H192.857V235.918Z" fill="#161616"/>
<path fill-rule="evenodd" clip-rule="evenodd" d="M150 235.918H171.429V214.471H150V235.918Z" fill="#161616"/>
<path fill-rule="evenodd" clip-rule="evenodd" d="M214.286 257.365H235.714V235.918H214.286V257.365Z" fill="#161616"/>
<path fill-rule="evenodd" clip-rule="evenodd" d="M171.429 257.365H192.857V235.918H171.429V257.365Z" fill="#161616"/>
<path fill-rule="evenodd" clip-rule="evenodd" d="M85.7143 257.365H107.143V235.918H85.7143V257.365Z" fill="#161616"/>
<path fill-rule="evenodd" clip-rule="evenodd" d="M107.143 235.918H128.571V214.471H107.143V235.918Z" fill="#161616"/>
<path fill-rule="evenodd" clip-rule="evenodd" d="M85.7143 235.918L64.2857 214.471H85.7143V235.918Z" fill="#161616"/>
<path fill-rule="evenodd" clip-rule="evenodd" d="M278.571 364.6H300V343.153H278.571V364.6Z" fill="#161616"/>
<path fill-rule="evenodd" clip-rule="evenodd" d="M235.714 364.6H257.143V343.153H235.714V364.6Z" fill="#161616"/>
<path fill-rule="evenodd" clip-rule="evenodd" d="M171.429 364.6L150 343.153H171.429V364.6Z" fill="#161616"/>
<path fill-rule="evenodd" clip-rule="evenodd" d="M214.286 386.047H235.714V364.6H214.286V386.047Z" fill="#161616"/>
<path fill-rule="evenodd" clip-rule="evenodd" d="M192.857 386.047L171.429 364.6H192.857V386.047Z" fill="#161616"/>
<path fill-rule="evenodd" clip-rule="evenodd" d="M278.571 321.706H300V300.259H278.571V321.706Z" fill="#161616"/>
<path fill-rule="evenodd" clip-rule="evenodd" d="M235.714 321.706H257.143V300.259H235.714V321.706Z" fill="#161616"/>
<path fill-rule="evenodd" clip-rule="evenodd" d="M150 321.706H171.429V300.259H150V321.706Z" fill="#161616"/>
<path fill-rule="evenodd" clip-rule="evenodd" d="M192.857 321.706H214.286V300.259H192.857V321.706Z" fill="#161616"/>
<path fill-rule="evenodd" clip-rule="evenodd" d="M257.143 343.153H278.571V321.706H257.143V343.153Z" fill="#161616"/>
<path fill-rule="evenodd" clip-rule="evenodd" d="M214.286 343.153H235.714V321.706H214.286V343.153Z" fill="#161616"/>
<path fill-rule="evenodd" clip-rule="evenodd" d="M342.857 193.023H321.429V171.576L342.857 193.023Z" fill="#161616"/>
<path fill-rule="evenodd" clip-rule="evenodd" d="M300 214.471H321.429V193.023H300V214.471Z" fill="#161616"/>
<path fill-rule="evenodd" clip-rule="evenodd" d="M321.429 278.812H342.857V257.365H321.429V278.812Z" fill="#161616"/>
<path fill-rule="evenodd" clip-rule="evenodd" d="M300 300.259H321.429V278.812H300V300.259Z" fill="#161616"/>
<path fill-rule="evenodd" clip-rule="evenodd" d="M321.429 235.918H342.857V214.471H321.429V235.918Z" fill="#161616"/>
<path fill-rule="evenodd" clip-rule="evenodd" d="M300 257.365H321.429V235.918H300V257.365Z" fill="#161616"/>
<path fill-rule="evenodd" clip-rule="evenodd" d="M300 386.047H321.429V364.6H300V386.047Z" fill="#161616"/>
<path fill-rule="evenodd" clip-rule="evenodd" d="M21.4286 193.023H42.8572V171.576H21.4286V193.023Z" fill="#161616"/>
<path fill-rule="evenodd" clip-rule="evenodd" d="M192.857 364.6H214.286V343.153H192.857V364.6Z" fill="#161616"/>
<path fill-rule="evenodd" clip-rule="evenodd" d="M171.429 300.259H192.857V278.812H171.429V300.259Z" fill="#161616"/>
<path fill-rule="evenodd" clip-rule="evenodd" d="M171.429 343.153H192.857V321.706H171.429V343.153Z" fill="#161616"/>
<path fill-rule="evenodd" clip-rule="evenodd" d="M150 278.812H171.429V257.365H150V278.812Z" fill="#161616"/>
<path fill-rule="evenodd" clip-rule="evenodd" d="M128.571 257.365H150V235.918H128.571V257.365Z" fill="#161616"/>
<path fill-rule="evenodd" clip-rule="evenodd" d="M21.4286 235.918V214.471H42.8572L21.4286 235.918Z" fill="#161616"/>
<path fill-rule="evenodd" clip-rule="evenodd" d="M21.4286 150.129H42.8572V128.682H21.4286V150.129Z" fill="#161616"/>
<path fill-rule="evenodd" clip-rule="evenodd" d="M150 107.235V128.682H128.571L150 107.235Z" fill="#161616"/>
<path fill-rule="evenodd" clip-rule="evenodd" d="M107.143 150.129H128.571V128.682H107.143V150.129Z" fill="#161616"/>
<path fill-rule="evenodd" clip-rule="evenodd" d="M257.143 42.8941V64.3412H235.714L257.143 42.8941Z" fill="#161616"/>
<path fill-rule="evenodd" clip-rule="evenodd" d="M235.714 64.3412V85.7882H214.286L235.714 64.3412Z" fill="#161616"/>
<path fill-rule="evenodd" clip-rule="evenodd" d="M0 171.576H21.4286V150.129L0 171.576Z" fill="#161616"/>
<path fill-rule="evenodd" clip-rule="evenodd" d="M214.286 407.494L192.857 386.047H214.286V407.494Z" fill="#161616"/>
<path fill-rule="evenodd" clip-rule="evenodd" d="M235.714 407.494H257.143V386.047H235.714V407.494Z" fill="#161616"/>
<path fill-rule="evenodd" clip-rule="evenodd" d="M278.571 450.388L257.143 428.941H278.571V450.388Z" fill="#161616"/>
<path fill-rule="evenodd" clip-rule="evenodd" d="M342.857 471.835H364.286V450.388H342.857V471.835Z" fill="black"/>
<path fill-rule="evenodd" clip-rule="evenodd" d="M300 471.835H321.429V450.388H300V471.835Z" fill="black"/>
<path fill-rule="evenodd" clip-rule="evenodd" d="M364.286 493.282H385.714V471.835H364.286V493.282Z" fill="black"/>
<path fill-rule="evenodd" clip-rule="evenodd" d="M321.429 493.282H342.857V471.835H321.429V493.282Z" fill="black"/>
<path fill-rule="evenodd" clip-rule="evenodd" d="M278.571 493.282H300V471.835H278.571V493.282Z" fill="black"/>
<path fill-rule="evenodd" clip-rule="evenodd" d="M342.857 514.729H364.286V493.282H342.857V514.729Z" fill="black"/>
<path fill-rule="evenodd" clip-rule="evenodd" d="M300 514.729H321.429V493.282H300V514.729Z" fill="black"/>
<path fill-rule="evenodd" clip-rule="evenodd" d="M257.143 514.729H278.571V493.282H257.143V514.729Z" fill="black"/>
<path fill-rule="evenodd" clip-rule="evenodd" d="M385.714 514.729H407.143V493.282H385.714V514.729Z" fill="black"/>
<path fill-rule="evenodd" clip-rule="evenodd" d="M364.286 536.176H385.714V514.729H364.286V536.176Z" fill="black"/>
<path fill-rule="evenodd" clip-rule="evenodd" d="M321.429 536.176H342.857V514.729H321.429V536.176Z" fill="black"/>
<path fill-rule="evenodd" clip-rule="evenodd" d="M300 536.176L278.571 514.729H300V536.176Z" fill="black"/>
<path fill-rule="evenodd" clip-rule="evenodd" d="M342.857 557.623H364.286V536.176H342.857V557.623Z" fill="black"/>
<path fill-rule="evenodd" clip-rule="evenodd" d="M321.429 557.623L300 536.176H321.429V557.623Z" fill="black"/>
<path fill-rule="evenodd" clip-rule="evenodd" d="M385.714 557.623H407.143V536.176H385.714V557.623Z" fill="black"/>
<path fill-rule="evenodd" clip-rule="evenodd" d="M407.143 536.176H428.571V514.729H407.143V536.176Z" fill="black"/>
<path fill-rule="evenodd" clip-rule="evenodd" d="M364.286 579.07H385.714V557.623H364.286V579.07Z" fill="black"/>
<path fill-rule="evenodd" clip-rule="evenodd" d="M321.429 579.07H342.857V557.623H321.429V579.07Z" fill="black"/>
<path fill-rule="evenodd" clip-rule="evenodd" d="M342.857 600.517H364.286V579.07H342.857V600.517Z" fill="black"/>
<path fill-rule="evenodd" clip-rule="evenodd" d="M364.286 621.964V600.517H385.714L364.286 621.964Z" fill="black"/>
<path fill-rule="evenodd" clip-rule="evenodd" d="M321.429 621.964H342.857V600.517H321.429V621.964Z" fill="black"/>
<path fill-rule="evenodd" clip-rule="evenodd" d="M342.857 643.412H364.286V621.964H342.857V643.412Z" fill="black"/>
<path fill-rule="evenodd" clip-rule="evenodd" d="M300 643.412H321.429V621.964H300V643.412Z" fill="black"/>
<path fill-rule="evenodd" clip-rule="evenodd" d="M321.429 664.859H342.857V643.412H321.429V664.859Z" fill="black"/>
<path fill-rule="evenodd" clip-rule="evenodd" d="M300 686.306H321.429V664.859H300V686.306Z" fill="black"/>
<path fill-rule="evenodd" clip-rule="evenodd" d="M321.429 707.753H342.856V686.306H321.429V707.753Z" fill="black"/>
<path fill-rule="evenodd" clip-rule="evenodd" d="M385.714 471.835H364.286V450.388L385.714 471.835Z" fill="#161616"/>
<path fill-rule="evenodd" clip-rule="evenodd" d="M278.571 471.835H300V450.388H278.571V471.835Z" fill="#161616"/>
<path fill-rule="evenodd" clip-rule="evenodd" d="M321.429 471.835H342.857V450.388H321.429V471.835Z" fill="#161616"/>
<path fill-rule="evenodd" clip-rule="evenodd" d="M407.143 493.282H385.714V471.835L407.143 493.282Z" fill="#161616"/>
<path fill-rule="evenodd" clip-rule="evenodd" d="M342.857 493.282H364.286V471.835H342.857V493.282Z" fill="#161616"/>
<path fill-rule="evenodd" clip-rule="evenodd" d="M300 493.282H321.429V471.835H300V493.282Z" fill="#161616"/>
<path fill-rule="evenodd" clip-rule="evenodd" d="M364.286 514.729H385.714V493.282H364.286V514.729Z" fill="#161616"/>
<path fill-rule="evenodd" clip-rule="evenodd" d="M321.429 514.729H342.857V493.282H321.429V514.729Z" fill="#161616"/>
<path fill-rule="evenodd" clip-rule="evenodd" d="M407.143 514.729H428.571V493.282H407.143V514.729Z" fill="#161616"/>
<path fill-rule="evenodd" clip-rule="evenodd" d="M278.571 514.729H300V493.282H278.571V514.729Z" fill="#161616"/>
<path fill-rule="evenodd" clip-rule="evenodd" d="M278.571 493.282H257.143L278.571 471.835V493.282Z" fill="#161616"/>
<path fill-rule="evenodd" clip-rule="evenodd" d="M385.714 536.176H407.143V514.729H385.714V536.176Z" fill="#161616"/>
<path fill-rule="evenodd" clip-rule="evenodd" d="M342.857 536.176H364.286V514.729H342.857V536.176Z" fill="#161616"/>
<path fill-rule="evenodd" clip-rule="evenodd" d="M300 536.176H321.429V514.729H300V536.176Z" fill="#161616"/>
<path fill-rule="evenodd" clip-rule="evenodd" d="M364.286 557.623H385.714V536.176H364.286V557.623Z" fill="#161616"/>
<path fill-rule="evenodd" clip-rule="evenodd" d="M321.429 557.623H342.857V536.176H321.429V557.623Z" fill="#161616"/>
<path fill-rule="evenodd" clip-rule="evenodd" d="M385.714 579.07H407.143V557.623H385.714V579.07Z" fill="#161616"/>
<path fill-rule="evenodd" clip-rule="evenodd" d="M342.857 579.07H364.286V557.623H342.857V579.07Z" fill="#161616"/>
<path fill-rule="evenodd" clip-rule="evenodd" d="M364.286 600.517H385.714V579.07H364.286V600.517Z" fill="#161616"/>
<path fill-rule="evenodd" clip-rule="evenodd" d="M321.429 600.517H342.857V579.07H321.429V600.517Z" fill="#161616"/>
<path fill-rule="evenodd" clip-rule="evenodd" d="M342.857 621.964H364.286V600.517H342.857V621.964Z" fill="#161616"/>
<path fill-rule="evenodd" clip-rule="evenodd" d="M321.429 621.964H300L321.429 600.517V621.964Z" fill="#161616"/>
<path fill-rule="evenodd" clip-rule="evenodd" d="M321.429 643.412H342.857V621.964H321.429V643.412Z" fill="#161616"/>
<path fill-rule="evenodd" clip-rule="evenodd" d="M342.857 664.859V643.412H364.286L342.857 664.859Z" fill="#161616"/>
<path fill-rule="evenodd" clip-rule="evenodd" d="M300 664.859H321.429V643.412H300V664.859Z" fill="#161616"/>
<path fill-rule="evenodd" clip-rule="evenodd" d="M321.429 686.306H342.857V664.859H321.429V686.306Z" fill="#161616"/>
<path fill-rule="evenodd" clip-rule="evenodd" d="M300 686.305L321.427 707.752V686.305H300Z" fill="#161616"/>
<path fill-rule="evenodd" clip-rule="evenodd" d="M535.714 300.259H557.143V278.812H535.714V300.259Z" fill="black"/>
<path fill-rule="evenodd" clip-rule="evenodd" d="M535.714 257.365H557.143V235.918H535.714V257.365Z" fill="black"/>
<path fill-rule="evenodd" clip-rule="evenodd" d="M600 193.023H621.429V171.576H600V193.023Z" fill="black"/>
<path fill-rule="evenodd" clip-rule="evenodd" d="M578.571 214.471H600V193.023H578.571V214.471Z" fill="black"/>
<path fill-rule="evenodd" clip-rule="evenodd" d="M642.857 150.129H664.286V128.682H642.857V150.129Z" fill="black"/>
<path fill-rule="evenodd" clip-rule="evenodd" d="M578.571 214.471H600V193.023H578.571V214.471Z" fill="black"/>
<path fill-rule="evenodd" clip-rule="evenodd" d="M514.286 321.706H535.714V300.259H514.286V321.706Z" fill="black"/>
<path fill-rule="evenodd" clip-rule="evenodd" d="M621.429 85.7882H642.857V64.3412H621.429V85.7882Z" fill="black"/>
<path fill-rule="evenodd" clip-rule="evenodd" d="M578.571 300.259H600V278.812H578.571V300.259Z" fill="black"/>
<path fill-rule="evenodd" clip-rule="evenodd" d="M600 257.365H578.571L600 235.918V257.365Z" fill="black"/>
<path fill-rule="evenodd" clip-rule="evenodd" d="M557.143 278.812H578.571V257.365H557.143V278.812Z" fill="black"/>
<path fill-rule="evenodd" clip-rule="evenodd" d="M621.429 171.576H642.857V150.129H621.429V171.576Z" fill="black"/>
<path fill-rule="evenodd" clip-rule="evenodd" d="M664.286 171.576H685.714V150.129H664.286V171.576Z" fill="black"/>
<path fill-rule="evenodd" clip-rule="evenodd" d="M664.286 257.365H685.714V235.918H664.286V257.365Z" fill="black"/>
<path fill-rule="evenodd" clip-rule="evenodd" d="M664.286 214.471H685.714V193.023H664.286V214.471Z" fill="black"/>
<path fill-rule="evenodd" clip-rule="evenodd" d="M642.857 235.916V257.365H621.427L642.857 235.916Z" fill="black"/>
<path fill-rule="evenodd" clip-rule="evenodd" d="M642.857 321.706H664.286V300.259H642.857V321.706Z" fill="black"/>
<path fill-rule="evenodd" clip-rule="evenodd" d="M642.857 278.812H664.286V257.365H642.857V278.812Z" fill="black"/>
<path fill-rule="evenodd" clip-rule="evenodd" d="M621.429 300.259H642.857V278.812H621.429V300.259Z" fill="black"/>
<path fill-rule="evenodd" clip-rule="evenodd" d="M600 278.812H621.429V257.365H600V278.812Z" fill="black"/>
<path fill-rule="evenodd" clip-rule="evenodd" d="M664.286 300.259H685.714V278.812H664.286V300.259Z" fill="black"/>
<path fill-rule="evenodd" clip-rule="evenodd" d="M707.143 321.706L685.714 300.259H707.143V321.706Z" fill="black"/>
<path fill-rule="evenodd" clip-rule="evenodd" d="M685.714 235.918H707.143V214.471H685.714V235.918Z" fill="black"/>
<path fill-rule="evenodd" clip-rule="evenodd" d="M685.714 193.023H707.143V171.576H685.714V193.023Z" fill="black"/>
<path fill-rule="evenodd" clip-rule="evenodd" d="M685.714 278.812H707.143V257.365H685.714V278.812Z" fill="black"/>
<path fill-rule="evenodd" clip-rule="evenodd" d="M707.143 257.365H728.571V235.918H707.143V257.365Z" fill="black"/>
<path fill-rule="evenodd" clip-rule="evenodd" d="M707.143 214.471H728.571V193.023H707.143V214.471Z" fill="black"/>
<path fill-rule="evenodd" clip-rule="evenodd" d="M707.143 300.259H728.571V278.812H707.143V300.259Z" fill="black"/>
<path fill-rule="evenodd" clip-rule="evenodd" d="M728.571 235.918H750V214.471H728.571V235.918Z" fill="black"/>
<path fill-rule="evenodd" clip-rule="evenodd" d="M728.571 193.023H750V171.576H728.571V193.023Z" fill="black"/>
<path fill-rule="evenodd" clip-rule="evenodd" d="M578.571 193.023H600V171.576H578.571V193.023Z" fill="#161616"/>
<path fill-rule="evenodd" clip-rule="evenodd" d="M600 214.471H621.429V193.023H600V214.471Z" fill="#161616"/>
<path fill-rule="evenodd" clip-rule="evenodd" d="M664.286 150.129H685.714V128.682H664.286V150.129Z" fill="#161616"/>
<path fill-rule="evenodd" clip-rule="evenodd" d="M642.857 150.129H621.429L642.857 128.682V150.129Z" fill="#161616"/>
<path fill-rule="evenodd" clip-rule="evenodd" d="M621.429 171.576H600L621.429 150.129V171.576Z" fill="#161616"/>
<path fill-rule="evenodd" clip-rule="evenodd" d="M578.571 193.023H600V171.576H578.571V193.023Z" fill="#161616"/>
<path fill-rule="evenodd" clip-rule="evenodd" d="M535.714 321.706H557.143V300.259H535.714V321.706Z" fill="#161616"/>
<path fill-rule="evenodd" clip-rule="evenodd" d="M535.714 300.259H514.286L535.714 278.812V300.259Z" fill="#161616"/>
<path fill-rule="evenodd" clip-rule="evenodd" d="M578.571 278.812H600V257.365H578.571V278.812Z" fill="#161616"/>
<path fill-rule="evenodd" clip-rule="evenodd" d="M600 321.706L578.571 300.259H600V321.706Z" fill="#161616"/>
<path fill-rule="evenodd" clip-rule="evenodd" d="M557.143 300.259H578.571V278.812H557.143V300.259Z" fill="#161616"/>
<path fill-rule="evenodd" clip-rule="evenodd" d="M642.857 171.576H664.286V150.129H642.857V171.576Z" fill="#161616"/>
<path fill-rule="evenodd" clip-rule="evenodd" d="M664.286 235.918H685.714V214.471H664.286V235.918Z" fill="#161616"/>
<path fill-rule="evenodd" clip-rule="evenodd" d="M664.286 193.023H685.714V171.576H664.286V193.023Z" fill="#161616"/>
<path fill-rule="evenodd" clip-rule="evenodd" d="M642.857 300.259H664.286V278.812H642.857V300.259Z" fill="#161616"/>
<path fill-rule="evenodd" clip-rule="evenodd" d="M621.429 278.812H642.857V257.365H621.429V278.812Z" fill="#161616"/>
<path fill-rule="evenodd" clip-rule="evenodd" d="M621.429 321.706H642.857V300.259H621.429V321.706Z" fill="#161616"/>
<path fill-rule="evenodd" clip-rule="evenodd" d="M642.857 343.153V321.706H664.286L642.857 343.153Z" fill="#161616"/>
<path fill-rule="evenodd" clip-rule="evenodd" d="M600 300.259H621.429V278.812H600V300.259Z" fill="#161616"/>
<path fill-rule="evenodd" clip-rule="evenodd" d="M707.144 171.576H685.714V150.128L707.144 171.576Z" fill="#161616"/>
<path fill-rule="evenodd" clip-rule="evenodd" d="M578.571 257.365H557.143V235.918L578.571 257.365Z" fill="#161616"/>
<path fill-rule="evenodd" clip-rule="evenodd" d="M535.714 278.812H557.143V257.365H535.714V278.812Z" fill="#161616"/>
<path fill-rule="evenodd" clip-rule="evenodd" d="M642.857 257.365H664.286V235.918H642.857V257.365Z" fill="#161616"/>
<path fill-rule="evenodd" clip-rule="evenodd" d="M600 257.365H621.429V235.918H600V257.365Z" fill="#161616"/>
<path fill-rule="evenodd" clip-rule="evenodd" d="M664.286 278.812H685.714V257.365H664.286V278.812Z" fill="#161616"/>
<path fill-rule="evenodd" clip-rule="evenodd" d="M685.714 214.471H707.143V193.023H685.714V214.471Z" fill="#161616"/>
<path fill-rule="evenodd" clip-rule="evenodd" d="M685.714 257.365H707.143V235.918H685.714V257.365Z" fill="#161616"/>
<path fill-rule="evenodd" clip-rule="evenodd" d="M685.714 300.259H707.143V278.812H685.714V300.259Z" fill="#161616"/>
<path fill-rule="evenodd" clip-rule="evenodd" d="M707.143 235.918H728.571V214.471H707.143V235.918Z" fill="#161616"/>
<path fill-rule="evenodd" clip-rule="evenodd" d="M707.143 193.023H728.571V171.576H707.143V193.023Z" fill="#161616"/>
<path fill-rule="evenodd" clip-rule="evenodd" d="M707.143 278.812H728.571V257.365H707.143V278.812Z" fill="#161616"/>
<path fill-rule="evenodd" clip-rule="evenodd" d="M728.571 214.471H750V193.023H728.571V214.471Z" fill="#161616"/>
<path fill-rule="evenodd" clip-rule="evenodd" d="M728.571 257.365H750V235.918H728.571V257.365Z" fill="#161616"/>
<path fill-rule="evenodd" clip-rule="evenodd" d="M750 193.023H771.429V171.576H750V193.023Z" fill="#161616"/>
<path fill-rule="evenodd" clip-rule="evenodd" d="M707.143 321.706H728.571V300.259H707.143V321.706Z" fill="#161616"/>
<path fill-rule="evenodd" clip-rule="evenodd" d="M728.571 150.129H750V128.682H728.571V150.129Z" fill="black"/>
<path fill-rule="evenodd" clip-rule="evenodd" d="M750 128.682V107.235H771.429L750 128.682Z" fill="black"/>
<path fill-rule="evenodd" clip-rule="evenodd" d="M750 107.235H728.571L750 85.7882V107.235Z" fill="black"/>
<path fill-rule="evenodd" clip-rule="evenodd" d="M728.571 128.682H750V107.235H728.571V128.682Z" fill="#161616"/>
<path fill-rule="evenodd" clip-rule="evenodd" d="M750 107.235H771.429V85.7882H750V107.235Z" fill="#161616"/>
<path fill-rule="evenodd" clip-rule="evenodd" d="M728.571 278.812H750V257.365H728.571V278.812Z" fill="black"/>
<path fill-rule="evenodd" clip-rule="evenodd" d="M750 257.365H771.429V235.918H750V257.365Z" fill="black"/>
<path fill-rule="evenodd" clip-rule="evenodd" d="M750 214.471H771.429V193.023H750V214.471Z" fill="black"/>
<path fill-rule="evenodd" clip-rule="evenodd" d="M749.998 278.812H771.429V300.259L749.998 278.812Z" fill="black"/>
<path fill-rule="evenodd" clip-rule="evenodd" d="M750 343.153H771.429V321.706H750V343.153Z" fill="black"/>
<path fill-rule="evenodd" clip-rule="evenodd" d="M750 278.812H771.429V257.365H750V278.812Z" fill="#161616"/>
<path fill-rule="evenodd" clip-rule="evenodd" d="M750 321.706L771.429 300.259V321.706H750Z" fill="#161616"/>
<path fill-rule="evenodd" clip-rule="evenodd" d="M750 343.153L771.429 364.6V343.153H750Z" fill="#161616"/>
<path fill-rule="evenodd" clip-rule="evenodd" d="M642.857 536.176H664.286V514.729H642.857V536.176Z" fill="black"/>
<path fill-rule="evenodd" clip-rule="evenodd" d="M600 536.176H621.429V514.729H600V536.176Z" fill="black"/>
<path fill-rule="evenodd" clip-rule="evenodd" d="M621.429 557.623H642.857V536.176H621.429V557.623Z" fill="black"/>
<path fill-rule="evenodd" clip-rule="evenodd" d="M621.429 514.729H642.857V493.282H621.429V514.729Z" fill="black"/>
<path fill-rule="evenodd" clip-rule="evenodd" d="M664.286 514.729V493.282H685.714L664.286 514.729Z" fill="black"/>
<path fill-rule="evenodd" clip-rule="evenodd" d="M535.714 471.835H557.143V450.388H535.714V471.835Z" fill="black"/>
<path fill-rule="evenodd" clip-rule="evenodd" d="M535.714 428.941H557.143V407.494H535.714V428.941Z" fill="black"/>
<path fill-rule="evenodd" clip-rule="evenodd" d="M707.143 428.941H728.571V407.494H707.143V428.941Z" fill="black"/>
<path fill-rule="evenodd" clip-rule="evenodd" d="M728.571 407.494H750V386.047H728.571V407.494Z" fill="black"/>
<path fill-rule="evenodd" clip-rule="evenodd" d="M535.714 386.047H557.143V364.6H535.714V386.047Z" fill="black"/>
<path fill-rule="evenodd" clip-rule="evenodd" d="M707.143 386.047H728.571V364.6H707.143V386.047Z" fill="black"/>
<path fill-rule="evenodd" clip-rule="evenodd" d="M750 386.047H771.429V364.6H750V386.047Z" fill="black"/>
<path fill-rule="evenodd" clip-rule="evenodd" d="M514.286 450.388H535.714V428.941H514.286V450.388Z" fill="black"/>
<path fill-rule="evenodd" clip-rule="evenodd" d="M492.857 450.388H514.286V471.835" fill="black"/>
<path fill-rule="evenodd" clip-rule="evenodd" d="M514.286 407.494H535.714V386.047H514.286V407.494Z" fill="black"/>
<path fill-rule="evenodd" clip-rule="evenodd" d="M492.857 428.941H514.286V407.494H492.857V428.941Z" fill="black"/>
<path fill-rule="evenodd" clip-rule="evenodd" d="M600 621.964H621.429V600.517H600V621.964Z" fill="black"/>
<path fill-rule="evenodd" clip-rule="evenodd" d="M642.857 579.07H664.286V557.623H642.857V579.07Z" fill="black"/>
<path fill-rule="evenodd" clip-rule="evenodd" d="M600 579.07H621.429V557.623H600V579.07Z" fill="black"/>
<path fill-rule="evenodd" clip-rule="evenodd" d="M621.429 600.517H642.857V579.07H621.429V600.517Z" fill="black"/>
<path fill-rule="evenodd" clip-rule="evenodd" d="M685.714 579.07H707.143V557.623H685.714V579.07Z" fill="black"/>
<path fill-rule="evenodd" clip-rule="evenodd" d="M578.571 493.282L557.143 471.835H578.571V493.282Z" fill="black"/>
<path fill-rule="evenodd" clip-rule="evenodd" d="M557.143 450.388H578.571V428.941H557.143V450.388Z" fill="black"/>
<path fill-rule="evenodd" clip-rule="evenodd" d="M557.143 407.494H578.571V386.047H557.143V407.494Z" fill="black"/>
<path fill-rule="evenodd" clip-rule="evenodd" d="M578.571 471.835H600V450.388H578.571V471.835Z" fill="black"/>
<path fill-rule="evenodd" clip-rule="evenodd" d="M578.571 428.941H600V407.494H578.571V428.941Z" fill="black"/>
<path fill-rule="evenodd" clip-rule="evenodd" d="M600 386.047H578.571V364.6L600 386.047Z" fill="black"/>
<path fill-rule="evenodd" clip-rule="evenodd" d="M600 493.282H621.429V471.835H600V493.282Z" fill="black"/>
<path fill-rule="evenodd" clip-rule="evenodd" d="M600 450.388H621.429V428.941H600V450.388Z" fill="black"/>
<path fill-rule="evenodd" clip-rule="evenodd" d="M621.429 471.835H642.857V450.388H621.429V471.835Z" fill="black"/>
<path fill-rule="evenodd" clip-rule="evenodd" d="M621.429 428.941H642.857V407.494H621.429V428.941Z" fill="black"/>
<path fill-rule="evenodd" clip-rule="evenodd" d="M642.857 493.282H664.286V471.835H642.857V493.282Z" fill="black"/>
<path fill-rule="evenodd" clip-rule="evenodd" d="M642.857 450.388H664.286V428.941H642.857V450.388Z" fill="black"/>
<path fill-rule="evenodd" clip-rule="evenodd" d="M664.286 471.835H685.714V450.388H664.286V471.835Z" fill="black"/>
<path fill-rule="evenodd" clip-rule="evenodd" d="M664.286 428.941H685.714V407.494H664.286V428.941Z" fill="black"/>
<path fill-rule="evenodd" clip-rule="evenodd" d="M685.714 493.282H707.143V471.835H685.714V493.282Z" fill="black"/>
<path fill-rule="evenodd" clip-rule="evenodd" d="M578.571 514.729H600V493.282H578.571V514.729Z" fill="black"/>
<path fill-rule="evenodd" clip-rule="evenodd" d="M600 407.494H621.429V386.047H600V407.494Z" fill="black"/>
<path fill-rule="evenodd" clip-rule="evenodd" d="M642.857 407.494H664.286V386.047H642.857V407.494Z" fill="black"/>
<path fill-rule="evenodd" clip-rule="evenodd" d="M664.286 386.047H685.714V364.6H664.286V386.047Z" fill="black"/>
<path fill-rule="evenodd" clip-rule="evenodd" d="M685.714 364.6H707.143V343.153H685.714V364.6Z" fill="black"/>
<path fill-rule="evenodd" clip-rule="evenodd" d="M621.429 386.047H642.857V364.6H621.429V386.047Z" fill="black"/>
<path fill-rule="evenodd" clip-rule="evenodd" d="M621.429 536.176H642.857V514.729H621.429V536.176Z" fill="#161616"/>
<path fill-rule="evenodd" clip-rule="evenodd" d="M642.857 557.623H664.286V536.176H642.857V557.623Z" fill="#161616"/>
<path fill-rule="evenodd" clip-rule="evenodd" d="M600 557.623H621.429V536.176H600V557.623Z" fill="#161616"/>
<path fill-rule="evenodd" clip-rule="evenodd" d="M642.857 514.729H664.286V493.282H642.857V514.729Z" fill="#161616"/>
<path fill-rule="evenodd" clip-rule="evenodd" d="M600 514.729H621.429V493.282H600V514.729Z" fill="#161616"/>
<path fill-rule="evenodd" clip-rule="evenodd" d="M535.714 450.388H557.143V428.941H535.714V450.388Z" fill="#161616"/>
<path fill-rule="evenodd" clip-rule="evenodd" d="M707.143 407.494H728.571V386.047H707.143V407.494Z" fill="#161616"/>
<path fill-rule="evenodd" clip-rule="evenodd" d="M535.714 407.494H557.143V386.047H535.714V407.494Z" fill="#161616"/>
<path fill-rule="evenodd" clip-rule="evenodd" d="M750 407.494V386.047H771.429L750 407.494Z" fill="#161616"/>
<path fill-rule="evenodd" clip-rule="evenodd" d="M728.571 428.941H750V407.494H728.571V428.941Z" fill="#161616"/>
<path fill-rule="evenodd" clip-rule="evenodd" d="M728.571 386.047H750V364.6H728.571V386.047Z" fill="#161616"/>
<path fill-rule="evenodd" clip-rule="evenodd" d="M492.857 450.388H514.286V428.941H492.857V450.388Z" fill="#161616"/>
<path fill-rule="evenodd" clip-rule="evenodd" d="M514.286 471.835H535.714V450.388H514.286V471.835Z" fill="#161616"/>
<path fill-rule="evenodd" clip-rule="evenodd" d="M514.286 407.494H492.857L514.286 386.047V407.494Z" fill="#161616"/>
<path fill-rule="evenodd" clip-rule="evenodd" d="M514.286 428.941H535.714V407.494H514.286V428.941Z" fill="#161616"/>
<path fill-rule="evenodd" clip-rule="evenodd" d="M535.714 386.047H514.286L535.714 364.6V386.047Z" fill="#161616"/>
<path fill-rule="evenodd" clip-rule="evenodd" d="M621.429 621.964V600.517H642.857L621.429 621.964Z" fill="#161616"/>
<path fill-rule="evenodd" clip-rule="evenodd" d="M621.429 579.07H642.857V557.623H621.429V579.07Z" fill="#161616"/>
<path fill-rule="evenodd" clip-rule="evenodd" d="M642.857 600.517V579.07H664.286L642.857 600.517Z" fill="#161616"/>
<path fill-rule="evenodd" clip-rule="evenodd" d="M600 600.517H621.429V579.07H600V600.517Z" fill="#161616"/>
<path fill-rule="evenodd" clip-rule="evenodd" d="M685.714 600.517H707.143V579.07H685.714V600.517Z" fill="#161616"/>
<path fill-rule="evenodd" clip-rule="evenodd" d="M557.143 471.835H578.571V450.388H557.143V471.835Z" fill="#161616"/>
<path fill-rule="evenodd" clip-rule="evenodd" d="M557.143 428.941H578.571V407.494H557.143V428.941Z" fill="#161616"/>
<path fill-rule="evenodd" clip-rule="evenodd" d="M578.571 493.282H600V471.835H578.571V493.282Z" fill="#161616"/>
<path fill-rule="evenodd" clip-rule="evenodd" d="M578.571 450.388H600V428.941H578.571V450.388Z" fill="#161616"/>
<path fill-rule="evenodd" clip-rule="evenodd" d="M578.571 407.494H600V386.047H578.571V407.494Z" fill="#161616"/>
<path fill-rule="evenodd" clip-rule="evenodd" d="M557.143 386.047H578.571V364.6H557.143V386.047Z" fill="#161616"/>
<path fill-rule="evenodd" clip-rule="evenodd" d="M600 471.835H621.429V450.388H600V471.835Z" fill="#161616"/>
<path fill-rule="evenodd" clip-rule="evenodd" d="M600 428.941H621.429V407.494H600V428.941Z" fill="#161616"/>
<path fill-rule="evenodd" clip-rule="evenodd" d="M621.429 493.282H642.857V471.835H621.429V493.282Z" fill="#161616"/>
<path fill-rule="evenodd" clip-rule="evenodd" d="M621.429 450.388H642.857V428.941H621.429V450.388Z" fill="#161616"/>
<path fill-rule="evenodd" clip-rule="evenodd" d="M642.857 471.835H664.286V450.388H642.857V471.835Z" fill="#161616"/>
<path fill-rule="evenodd" clip-rule="evenodd" d="M642.857 428.941H664.286V407.494H642.857V428.941Z" fill="#161616"/>
<path fill-rule="evenodd" clip-rule="evenodd" d="M664.286 493.282H685.714V471.835H664.286V493.282Z" fill="#161616"/>
<path fill-rule="evenodd" clip-rule="evenodd" d="M664.286 450.388H685.714V428.941H664.286V450.388Z" fill="#161616"/>
<path fill-rule="evenodd" clip-rule="evenodd" d="M664.286 407.494H685.714V386.047H664.286V407.494Z" fill="#161616"/>
<path fill-rule="evenodd" clip-rule="evenodd" d="M685.714 471.835H707.143V450.388H685.714V471.835Z" fill="#161616"/>
<path fill-rule="evenodd" clip-rule="evenodd" d="M621.429 407.494H642.857V386.047H621.429V407.494Z" fill="#161616"/>
<path fill-rule="evenodd" clip-rule="evenodd" d="M621.429 364.597V386.047H600L621.429 364.597Z" fill="#161616"/>
<path fill-rule="evenodd" clip-rule="evenodd" d="M685.714 386.047H707.143V364.6H685.714V386.047Z" fill="#161616"/>
<path fill-rule="evenodd" clip-rule="evenodd" d="M685.714 343.15V364.6H664.286L685.714 343.15Z" fill="#161616"/>
<path fill-rule="evenodd" clip-rule="evenodd" d="M664.286 364.597V386.047H642.857L664.286 364.597Z" fill="#161616"/>
<path fill-rule="evenodd" clip-rule="evenodd" d="M642.857 343.15V364.6H621.429L642.857 343.15Z" fill="#161616"/>
<path fill-rule="evenodd" clip-rule="evenodd" d="M728.573 364.6H707.143V343.151L728.573 364.6Z" fill="#161616"/>
<path fill-rule="evenodd" clip-rule="evenodd" d="M835.714 407.494L814.286 386.047H835.714V407.494Z" fill="black"/>
<path fill-rule="evenodd" clip-rule="evenodd" d="M792.857 386.047H814.286V364.6H792.857V386.047Z" fill="black"/>
<path fill-rule="evenodd" clip-rule="evenodd" d="M835.714 386.047H857.143V364.6H835.714V386.047Z" fill="black"/>
<path fill-rule="evenodd" clip-rule="evenodd" d="M771.429 235.918H792.857V214.471H771.429V235.918Z" fill="black"/>
<path fill-rule="evenodd" clip-rule="evenodd" d="M771.429 193.023H792.857V171.576H771.429V193.023Z" fill="black"/>
<path fill-rule="evenodd" clip-rule="evenodd" d="M771.429 278.812H792.857V257.365H771.429V278.812Z" fill="black"/>
<path fill-rule="evenodd" clip-rule="evenodd" d="M792.857 257.365H814.286V235.918H792.857V257.365Z" fill="black"/>
<path fill-rule="evenodd" clip-rule="evenodd" d="M792.857 214.471H814.286V193.023H792.857V214.471Z" fill="black"/>
<path fill-rule="evenodd" clip-rule="evenodd" d="M792.857 300.259H814.286V278.812H792.857V300.259Z" fill="black"/>
<path fill-rule="evenodd" clip-rule="evenodd" d="M814.286 235.918H835.714V214.471H814.286V235.918Z" fill="black"/>
<path fill-rule="evenodd" clip-rule="evenodd" d="M814.286 193.023H835.714V171.576H814.286V193.023Z" fill="black"/>
<path fill-rule="evenodd" clip-rule="evenodd" d="M814.286 278.812H835.714V257.365H814.286V278.812Z" fill="black"/>
<path fill-rule="evenodd" clip-rule="evenodd" d="M835.714 257.365H857.143V235.918H835.714V257.365Z" fill="black"/>
<path fill-rule="evenodd" clip-rule="evenodd" d="M835.714 214.471H857.143V193.023H835.714V214.471Z" fill="black"/>
<path fill-rule="evenodd" clip-rule="evenodd" d="M835.714 300.259H857.143V278.812H835.714V300.259Z" fill="black"/>
<path fill-rule="evenodd" clip-rule="evenodd" d="M857.143 235.918H878.571V214.471H857.143V235.918Z" fill="black"/>
<path fill-rule="evenodd" clip-rule="evenodd" d="M857.143 193.023H878.571V171.576H857.143V193.023Z" fill="black"/>
<path fill-rule="evenodd" clip-rule="evenodd" d="M857.143 278.812H878.571V257.365H857.143V278.812Z" fill="black"/>
<path fill-rule="evenodd" clip-rule="evenodd" d="M878.571 257.365H900V235.918H878.571V257.365Z" fill="black"/>
<path fill-rule="evenodd" clip-rule="evenodd" d="M878.571 214.471H900V193.023H878.571V214.471Z" fill="black"/>
<path fill-rule="evenodd" clip-rule="evenodd" d="M878.571 300.259H900V278.812H878.571V300.259Z" fill="black"/>
<path fill-rule="evenodd" clip-rule="evenodd" d="M900 235.918H921.429V214.471H900V235.918Z" fill="black"/>
<path fill-rule="evenodd" clip-rule="evenodd" d="M900 193.023H921.429V171.576H900V193.023Z" fill="black"/>
<path fill-rule="evenodd" clip-rule="evenodd" d="M900 278.812H921.429V257.365H900V278.812Z" fill="black"/>
<path fill-rule="evenodd" clip-rule="evenodd" d="M792.857 343.153H814.286V321.706H792.857V343.153Z" fill="black"/>
<path fill-rule="evenodd" clip-rule="evenodd" d="M835.714 343.153H857.143V321.706H835.714V343.153Z" fill="black"/>
<path fill-rule="evenodd" clip-rule="evenodd" d="M771.429 321.706H792.857V300.259H771.429V321.706Z" fill="black"/>
<path fill-rule="evenodd" clip-rule="evenodd" d="M814.286 321.706H835.714V300.259H814.286V321.706Z" fill="black"/>
<path fill-rule="evenodd" clip-rule="evenodd" d="M857.143 321.706H878.571V300.259H857.143V321.706Z" fill="black"/>
<path fill-rule="evenodd" clip-rule="evenodd" d="M771.429 364.6H792.857V343.153H771.429V364.6Z" fill="black"/>
<path fill-rule="evenodd" clip-rule="evenodd" d="M814.286 364.6H835.714V343.153H814.286V364.6Z" fill="black"/>
<path fill-rule="evenodd" clip-rule="evenodd" d="M857.143 364.6H878.571V343.153H857.143V364.6Z" fill="black"/>
<path fill-rule="evenodd" clip-rule="evenodd" d="M921.429 257.365H942.857V235.918H921.429V257.365Z" fill="black"/>
<path fill-rule="evenodd" clip-rule="evenodd" d="M921.429 214.471H942.857V193.023H921.429V214.471Z" fill="black"/>
<path fill-rule="evenodd" clip-rule="evenodd" d="M942.857 235.918H964.286V214.471H942.857V235.918Z" fill="black"/>
<path fill-rule="evenodd" clip-rule="evenodd" d="M942.857 193.023H964.286V171.576H942.857V193.023Z" fill="black"/>
<path fill-rule="evenodd" clip-rule="evenodd" d="M964.286 214.471H985.714V193.023H964.286V214.471Z" fill="black"/>
<path fill-rule="evenodd" clip-rule="evenodd" d="M985.714 235.918H1007.14V214.471H985.714V235.918Z" fill="black"/>
<path fill-rule="evenodd" clip-rule="evenodd" d="M985.714 193.023H1007.14V171.576H985.714V193.023Z" fill="black"/>
<path fill-rule="evenodd" clip-rule="evenodd" d="M1007.14 214.471H1028.57V193.023H1007.14V214.471Z" fill="black"/>
<path fill-rule="evenodd" clip-rule="evenodd" d="M878.571 343.153H900V321.706H878.571V343.153Z" fill="black"/>
<path fill-rule="evenodd" clip-rule="evenodd" d="M814.286 150.129H835.714V128.682H814.286V150.129Z" fill="black"/>
<path fill-rule="evenodd" clip-rule="evenodd" d="M835.714 171.576H857.143V150.129H835.714V171.576Z" fill="black"/>
<path fill-rule="evenodd" clip-rule="evenodd" d="M835.714 128.682H857.143V107.235H835.714V128.682Z" fill="black"/>
<path fill-rule="evenodd" clip-rule="evenodd" d="M857.143 150.129H878.571V128.682H857.143V150.129Z" fill="black"/>
<path fill-rule="evenodd" clip-rule="evenodd" d="M878.571 107.235H857.143L878.571 85.7882V107.235Z" fill="black"/>
<path fill-rule="evenodd" clip-rule="evenodd" d="M878.571 171.576H900V150.129H878.571V171.576Z" fill="black"/>
<path fill-rule="evenodd" clip-rule="evenodd" d="M878.571 128.682H900V107.235H878.571V128.682Z" fill="black"/>
<path fill-rule="evenodd" clip-rule="evenodd" d="M900 150.129H921.429V128.682H900V150.129Z" fill="black"/>
<path fill-rule="evenodd" clip-rule="evenodd" d="M900 107.235H921.429V85.7882H900V107.235Z" fill="black"/>
<path fill-rule="evenodd" clip-rule="evenodd" d="M921.429 171.576H942.857V150.129H921.429V171.576Z" fill="black"/>
<path fill-rule="evenodd" clip-rule="evenodd" d="M921.429 128.682H942.857V107.235H921.429V128.682Z" fill="black"/>
<path fill-rule="evenodd" clip-rule="evenodd" d="M942.857 150.129H964.286V128.682H942.857V150.129Z" fill="black"/>
<path fill-rule="evenodd" clip-rule="evenodd" d="M964.286 171.576H985.714V150.129H964.286V171.576Z" fill="black"/>
<path fill-rule="evenodd" clip-rule="evenodd" d="M964.286 128.682H985.714V107.235H964.286V128.682Z" fill="black"/>
<path fill-rule="evenodd" clip-rule="evenodd" d="M985.714 150.129H1007.14V128.682H985.714V150.129Z" fill="black"/>
<path fill-rule="evenodd" clip-rule="evenodd" d="M900 64.3412H921.429V42.8941H900V64.3412Z" fill="black"/>
<path fill-rule="evenodd" clip-rule="evenodd" d="M921.429 85.7882H942.857V64.3412H921.429V85.7882Z" fill="black"/>
<path fill-rule="evenodd" clip-rule="evenodd" d="M900 85.7882H878.571L900 64.3412V85.7882Z" fill="black"/>
<path fill-rule="evenodd" clip-rule="evenodd" d="M964.286 107.235H942.857V85.7882L964.286 107.235Z" fill="black"/>
<path fill-rule="evenodd" clip-rule="evenodd" d="M792.857 171.576H814.286V150.129H792.857V171.576Z" fill="black"/>
<path fill-rule="evenodd" clip-rule="evenodd" d="M1007.14 171.576H1028.57V150.129H1007.14V171.576Z" fill="black"/>
<path fill-rule="evenodd" clip-rule="evenodd" d="M1028.57 150.129H1050V128.682H1028.57V150.129Z" fill="black"/>
<path fill-rule="evenodd" clip-rule="evenodd" d="M1050 171.576H1071.43V150.129H1050V171.576Z" fill="black"/>
<path fill-rule="evenodd" clip-rule="evenodd" d="M1071.43 150.129H1092.86V128.682H1071.43V150.129Z" fill="black"/>
<path fill-rule="evenodd" clip-rule="evenodd" d="M1092.86 171.576H1114.29V150.129H1092.86V171.576Z" fill="black"/>
<path fill-rule="evenodd" clip-rule="evenodd" d="M1050 128.682H1071.43V107.235H1050V128.682Z" fill="black"/>
<path fill-rule="evenodd" clip-rule="evenodd" d="M1028.57 193.023H1050V171.576H1028.57V193.023Z" fill="black"/>
<path fill-rule="evenodd" clip-rule="evenodd" d="M1071.43 193.023H1092.86V171.576H1071.43V193.023Z" fill="black"/>
<path fill-rule="evenodd" clip-rule="evenodd" d="M1135.71 171.576H1157.14V150.129H1135.71V171.576Z" fill="black"/>
<path fill-rule="evenodd" clip-rule="evenodd" d="M1114.29 193.023H1135.71V171.576H1114.29V193.023Z" fill="black"/>
<path fill-rule="evenodd" clip-rule="evenodd" d="M1050 214.471H1071.43V193.023H1050V214.471Z" fill="black"/>
<path fill-rule="evenodd" clip-rule="evenodd" d="M835.714 407.494V386.047H857.143L835.714 407.494Z" fill="#161616"/>
<path fill-rule="evenodd" clip-rule="evenodd" d="M814.286 386.047H835.714V364.6H814.286V386.047Z" fill="#161616"/>
<path fill-rule="evenodd" clip-rule="evenodd" d="M771.429 386.047H792.857V364.6H771.429V386.047Z" fill="#161616"/>
<path fill-rule="evenodd" clip-rule="evenodd" d="M857.143 386.047H878.571V364.6H857.143V386.047Z" fill="#161616"/>
<path fill-rule="evenodd" clip-rule="evenodd" d="M857.143 386.047H878.571V364.6H857.143V386.047Z" fill="#161616"/>
<path fill-rule="evenodd" clip-rule="evenodd" d="M771.429 214.471H792.857V193.023H771.429V214.471Z" fill="#161616"/>
<path fill-rule="evenodd" clip-rule="evenodd" d="M771.429 257.365H792.857V235.918H771.429V257.365Z" fill="#161616"/>
<path fill-rule="evenodd" clip-rule="evenodd" d="M771.429 300.259H792.857V278.812H771.429V300.259Z" fill="#161616"/>
<path fill-rule="evenodd" clip-rule="evenodd" d="M792.857 235.918H814.286V214.471H792.857V235.918Z" fill="#161616"/>
<path fill-rule="evenodd" clip-rule="evenodd" d="M792.857 193.023H814.286V171.576H792.857V193.023Z" fill="#161616"/>
<path fill-rule="evenodd" clip-rule="evenodd" d="M792.857 278.812H814.286V257.365H792.857V278.812Z" fill="#161616"/>
<path fill-rule="evenodd" clip-rule="evenodd" d="M814.286 214.471H835.714V193.023H814.286V214.471Z" fill="#161616"/>
<path fill-rule="evenodd" clip-rule="evenodd" d="M814.286 257.365H835.714V235.918H814.286V257.365Z" fill="#161616"/>
<path fill-rule="evenodd" clip-rule="evenodd" d="M814.286 300.259H835.714V278.812H814.286V300.259Z" fill="#161616"/>
<path fill-rule="evenodd" clip-rule="evenodd" d="M835.714 235.918H857.143V214.471H835.714V235.918Z" fill="#161616"/>
<path fill-rule="evenodd" clip-rule="evenodd" d="M835.714 193.023H857.143V171.576H835.714V193.023Z" fill="#161616"/>
<path fill-rule="evenodd" clip-rule="evenodd" d="M835.714 278.812H857.143V257.365H835.714V278.812Z" fill="#161616"/>
<path fill-rule="evenodd" clip-rule="evenodd" d="M857.143 214.471H878.571V193.023H857.143V214.471Z" fill="#161616"/>
<path fill-rule="evenodd" clip-rule="evenodd" d="M857.143 257.365H878.571V235.918H857.143V257.365Z" fill="#161616"/>
<path fill-rule="evenodd" clip-rule="evenodd" d="M857.143 300.259H878.571V278.812H857.143V300.259Z" fill="#161616"/>
<path fill-rule="evenodd" clip-rule="evenodd" d="M878.571 235.918H900V214.471H878.571V235.918Z" fill="#161616"/>
<path fill-rule="evenodd" clip-rule="evenodd" d="M878.571 193.023H900V171.576H878.571V193.023Z" fill="#161616"/>
<path fill-rule="evenodd" clip-rule="evenodd" d="M878.571 278.812H900V257.365H878.571V278.812Z" fill="#161616"/>
<path fill-rule="evenodd" clip-rule="evenodd" d="M900 214.471H921.429V193.023H900V214.471Z" fill="#161616"/>
<path fill-rule="evenodd" clip-rule="evenodd" d="M900 257.365H921.429V235.918H900V257.365Z" fill="#161616"/>
<path fill-rule="evenodd" clip-rule="evenodd" d="M900 300.259H921.429V278.812H900V300.259Z" fill="#161616"/>
<path fill-rule="evenodd" clip-rule="evenodd" d="M771.429 343.153H792.857V321.706H771.429V343.153Z" fill="#161616"/>
<path fill-rule="evenodd" clip-rule="evenodd" d="M814.286 343.153H835.714V321.706H814.286V343.153Z" fill="#161616"/>
<path fill-rule="evenodd" clip-rule="evenodd" d="M792.857 321.706H814.286V300.259H792.857V321.706Z" fill="#161616"/>
<path fill-rule="evenodd" clip-rule="evenodd" d="M835.714 321.706H857.143V300.259H835.714V321.706Z" fill="#161616"/>
<path fill-rule="evenodd" clip-rule="evenodd" d="M792.857 364.6H814.286V343.153H792.857V364.6Z" fill="#161616"/>
<path fill-rule="evenodd" clip-rule="evenodd" d="M835.714 364.6H857.143V343.153H835.714V364.6Z" fill="#161616"/>
<path fill-rule="evenodd" clip-rule="evenodd" d="M921.429 235.918H942.857V214.471H921.429V235.918Z" fill="#161616"/>
<path fill-rule="evenodd" clip-rule="evenodd" d="M921.429 193.023H942.857V171.576H921.429V193.023Z" fill="#161616"/>
<path fill-rule="evenodd" clip-rule="evenodd" d="M921.429 278.812H942.857V257.365H921.429V278.812Z" fill="#161616"/>
<path fill-rule="evenodd" clip-rule="evenodd" d="M942.857 214.471H964.286V193.023H942.857V214.471Z" fill="#161616"/>
<path fill-rule="evenodd" clip-rule="evenodd" d="M942.857 257.365H964.286V235.918H942.857V257.365Z" fill="#161616"/>
<path fill-rule="evenodd" clip-rule="evenodd" d="M964.286 235.918H985.714V214.471H964.286V235.918Z" fill="#161616"/>
<path fill-rule="evenodd" clip-rule="evenodd" d="M964.286 193.023H985.714V171.576H964.286V193.023Z" fill="#161616"/>
<path fill-rule="evenodd" clip-rule="evenodd" d="M985.714 214.471H1007.14V193.023H985.714V214.471Z" fill="#161616"/>
<path fill-rule="evenodd" clip-rule="evenodd" d="M1007.14 193.023H1028.57V171.576H1007.14V193.023Z" fill="#161616"/>
<path fill-rule="evenodd" clip-rule="evenodd" d="M857.143 343.153H878.571V321.706H857.143V343.153Z" fill="#161616"/>
<path fill-rule="evenodd" clip-rule="evenodd" d="M878.571 364.6H900V343.153H878.571V364.6Z" fill="#161616"/>
<path fill-rule="evenodd" clip-rule="evenodd" d="M878.571 364.6H900V343.153H878.571V364.6Z" fill="#161616"/>
<path fill-rule="evenodd" clip-rule="evenodd" d="M878.571 321.706H900V300.259H878.571V321.706Z" fill="#161616"/>
<path fill-rule="evenodd" clip-rule="evenodd" d="M814.286 128.682H835.714V107.235H814.286V128.682Z" fill="#161616"/>
<path fill-rule="evenodd" clip-rule="evenodd" d="M814.286 171.576H835.714V150.129H814.286V171.576Z" fill="#161616"/>
<path fill-rule="evenodd" clip-rule="evenodd" d="M835.714 150.129H857.143V128.682H835.714V150.129Z" fill="#161616"/>
<path fill-rule="evenodd" clip-rule="evenodd" d="M857.143 128.682H878.571V107.235H857.143V128.682Z" fill="#161616"/>
<path fill-rule="evenodd" clip-rule="evenodd" d="M857.143 171.576H878.571V150.129H857.143V171.576Z" fill="#161616"/>
<path fill-rule="evenodd" clip-rule="evenodd" d="M878.571 150.129H900V128.682H878.571V150.129Z" fill="#161616"/>
<path fill-rule="evenodd" clip-rule="evenodd" d="M878.571 107.235H900V85.7882H878.571V107.235Z" fill="#161616"/>
<path fill-rule="evenodd" clip-rule="evenodd" d="M900 128.682H921.429V107.235H900V128.682Z" fill="#161616"/>
<path fill-rule="evenodd" clip-rule="evenodd" d="M900 171.576H921.429V150.129H900V171.576Z" fill="#161616"/>
<path fill-rule="evenodd" clip-rule="evenodd" d="M921.429 150.129H942.857V128.682H921.429V150.129Z" fill="#161616"/>
<path fill-rule="evenodd" clip-rule="evenodd" d="M921.429 107.235H942.857V85.7882H921.429V107.235Z" fill="#161616"/>
<path fill-rule="evenodd" clip-rule="evenodd" d="M942.857 128.682H964.286V107.235H942.857V128.682Z" fill="#161616"/>
<path fill-rule="evenodd" clip-rule="evenodd" d="M942.857 171.576H964.286V150.129H942.857V171.576Z" fill="#161616"/>
<path fill-rule="evenodd" clip-rule="evenodd" d="M964.286 150.129H985.714V128.682H964.286V150.129Z" fill="#161616"/>
<path fill-rule="evenodd" clip-rule="evenodd" d="M985.714 128.682H1007.14V107.235H985.714V128.682Z" fill="#161616"/>
<path fill-rule="evenodd" clip-rule="evenodd" d="M985.714 171.576H1007.14V150.129H985.714V171.576Z" fill="#161616"/>
<path fill-rule="evenodd" clip-rule="evenodd" d="M900 85.7882H921.429V64.3412H900V85.7882Z" fill="#161616"/>
<path fill-rule="evenodd" clip-rule="evenodd" d="M942.857 64.3412H921.429V42.8941L942.857 64.3412Z" fill="#161616"/>
<path fill-rule="evenodd" clip-rule="evenodd" d="M814.286 128.68V150.129H792.857L814.286 128.68Z" fill="#161616"/>
<path fill-rule="evenodd" clip-rule="evenodd" d="M1007.14 150.129H1028.57V128.682H1007.14V150.129Z" fill="#161616"/>
<path fill-rule="evenodd" clip-rule="evenodd" d="M1028.57 171.576H1050V150.129H1028.57V171.576Z" fill="#161616"/>
<path fill-rule="evenodd" clip-rule="evenodd" d="M1050 150.129H1071.43V128.682H1050V150.129Z" fill="#161616"/>
<path fill-rule="evenodd" clip-rule="evenodd" d="M1071.43 171.576H1092.86V150.129H1071.43V171.576Z" fill="#161616"/>
<path fill-rule="evenodd" clip-rule="evenodd" d="M1114.29 150.129H1092.86V128.682L1114.29 150.129Z" fill="#161616"/>
<path fill-rule="evenodd" clip-rule="evenodd" d="M1050 128.682H1028.57L1050 107.235V128.682Z" fill="#161616"/>
<path fill-rule="evenodd" clip-rule="evenodd" d="M1050 193.023H1071.43V171.576H1050V193.023Z" fill="#161616"/>
<path fill-rule="evenodd" clip-rule="evenodd" d="M1092.86 193.023H1114.29V171.576H1092.86V193.023Z" fill="#161616"/>
<path fill-rule="evenodd" clip-rule="evenodd" d="M1114.29 171.576H1135.71V150.129H1114.29V171.576Z" fill="#161616"/>
<path fill-rule="evenodd" clip-rule="evenodd" d="M1135.71 193.023H1157.14V171.576H1135.71V193.023Z" fill="#161616"/>
<path fill-rule="evenodd" clip-rule="evenodd" d="M1114.29 214.471V193.023H1135.71L1114.29 214.471Z" fill="#161616"/>
<path fill-rule="evenodd" clip-rule="evenodd" d="M1028.57 214.471H1050V193.023H1028.57V214.471Z" fill="#161616"/>
<path fill-rule="evenodd" clip-rule="evenodd" d="M750 235.918H771.429V214.471H750V235.918Z" fill="#161616"/>
<path fill-rule="evenodd" clip-rule="evenodd" d="M921.429 300.259H942.857V278.812H921.429V300.259Z" fill="black"/>
<path fill-rule="evenodd" clip-rule="evenodd" d="M942.857 278.812H964.286V257.365H942.857V278.812Z" fill="black"/>
<path fill-rule="evenodd" clip-rule="evenodd" d="M964.286 257.365H985.714V235.918H964.286V257.365Z" fill="black"/>
<path fill-rule="evenodd" clip-rule="evenodd" d="M964.286 300.259H985.714V278.812H964.286V300.259Z" fill="black"/>
<path fill-rule="evenodd" clip-rule="evenodd" d="M985.714 278.812H1007.14V257.365H985.714V278.812Z" fill="black"/>
<path fill-rule="evenodd" clip-rule="evenodd" d="M1007.14 257.365H1028.57V235.918H1007.14V257.365Z" fill="black"/>
<path fill-rule="evenodd" clip-rule="evenodd" d="M1007.14 300.259H1028.57V278.812H1007.14V300.259Z" fill="black"/>
<path fill-rule="evenodd" clip-rule="evenodd" d="M900 364.6H921.429V343.153H900V364.6Z" fill="black"/>
<path fill-rule="evenodd" clip-rule="evenodd" d="M900 321.706H921.429V300.259H900V321.706Z" fill="black"/>
<path fill-rule="evenodd" clip-rule="evenodd" d="M921.429 386.047H942.857V364.6H921.429V386.047Z" fill="black"/>
<path fill-rule="evenodd" clip-rule="evenodd" d="M921.429 343.153H942.857V321.706H921.429V343.153Z" fill="black"/>
<path fill-rule="evenodd" clip-rule="evenodd" d="M921.429 428.941H942.857V407.494H921.429V428.941Z" fill="black"/>
<path fill-rule="evenodd" clip-rule="evenodd" d="M942.857 364.6H964.286V343.153H942.857V364.6Z" fill="black"/>
<path fill-rule="evenodd" clip-rule="evenodd" d="M942.857 321.706H964.286V300.259H942.857V321.706Z" fill="black"/>
<path fill-rule="evenodd" clip-rule="evenodd" d="M964.286 386.047H985.714V364.6H964.286V386.047Z" fill="black"/>
<path fill-rule="evenodd" clip-rule="evenodd" d="M964.286 343.153H985.714V321.706H964.286V343.153Z" fill="black"/>
<path fill-rule="evenodd" clip-rule="evenodd" d="M942.857 407.494V386.047H964.286L942.857 407.494Z" fill="black"/>
<path fill-rule="evenodd" clip-rule="evenodd" d="M985.714 321.706H1007.14V300.259H985.714V321.706Z" fill="black"/>
<path fill-rule="evenodd" clip-rule="evenodd" d="M1092.86 257.365V235.918H1114.29L1092.86 257.365Z" fill="black"/>
<path fill-rule="evenodd" clip-rule="evenodd" d="M1050 343.153V321.706H1071.43L1050 343.153Z" fill="black"/>
<path fill-rule="evenodd" clip-rule="evenodd" d="M942.857 300.259H964.286V278.812H942.857V300.259Z" fill="#161616"/>
<path fill-rule="evenodd" clip-rule="evenodd" d="M964.286 278.812H985.714V257.365H964.286V278.812Z" fill="#161616"/>
<path fill-rule="evenodd" clip-rule="evenodd" d="M985.714 257.365H1007.14V235.918H985.714V257.365Z" fill="#161616"/>
<path fill-rule="evenodd" clip-rule="evenodd" d="M985.714 300.259H1007.14V278.812H985.714V300.259Z" fill="#161616"/>
<path fill-rule="evenodd" clip-rule="evenodd" d="M1007.14 235.918H1028.57V214.471H1007.14V235.918Z" fill="#161616"/>
<path fill-rule="evenodd" clip-rule="evenodd" d="M1007.14 278.812H1028.57V257.365H1007.14V278.812Z" fill="#161616"/>
<path fill-rule="evenodd" clip-rule="evenodd" d="M900 343.153H921.429V321.706H900V343.153Z" fill="#161616"/>
<path fill-rule="evenodd" clip-rule="evenodd" d="M921.429 364.6H942.857V343.153H921.429V364.6Z" fill="#161616"/>
<path fill-rule="evenodd" clip-rule="evenodd" d="M921.429 321.706H942.857V300.259H921.429V321.706Z" fill="#161616"/>
<path fill-rule="evenodd" clip-rule="evenodd" d="M921.429 407.494H942.857V386.047H921.429V407.494Z" fill="#161616"/>
<path fill-rule="evenodd" clip-rule="evenodd" d="M942.857 343.153H964.286V321.706H942.857V343.153Z" fill="#161616"/>
<path fill-rule="evenodd" clip-rule="evenodd" d="M942.857 386.047H964.286V364.6H942.857V386.047Z" fill="#161616"/>
<path fill-rule="evenodd" clip-rule="evenodd" d="M964.286 364.6H985.714V343.153H964.286V364.6Z" fill="#161616"/>
<path fill-rule="evenodd" clip-rule="evenodd" d="M964.286 321.706H985.714V300.259H964.286V321.706Z" fill="#161616"/>
<path fill-rule="evenodd" clip-rule="evenodd" d="M900 364.6H921.429V386.047L900 364.6Z" fill="#161616"/>
<path fill-rule="evenodd" clip-rule="evenodd" d="M921.429 428.941H942.857V450.388L921.429 428.941Z" fill="#161616"/>
<path fill-rule="evenodd" clip-rule="evenodd" d="M1007.14 343.153L985.714 321.706H1007.14V343.153Z" fill="#161616"/>
<path fill-rule="evenodd" clip-rule="evenodd" d="M1007.14 321.706V300.259H1028.57L1007.14 321.706Z" fill="#161616"/>
<path fill-rule="evenodd" clip-rule="evenodd" d="M1092.86 235.918H1114.29V214.471H1092.86V235.918Z" fill="#161616"/>
<path fill-rule="evenodd" clip-rule="evenodd" d="M1050 321.706H1071.43V300.259H1050V321.706Z" fill="#161616"/>
<path fill-rule="evenodd" clip-rule="evenodd" d="M942.857 471.835H964.286V450.388H942.857V471.835Z" fill="black"/>
<path fill-rule="evenodd" clip-rule="evenodd" d="M964.286 493.282V471.835H985.714L964.286 493.282Z" fill="black"/>
<path fill-rule="evenodd" clip-rule="evenodd" d="M985.714 471.835V450.388H1007.14L985.714 471.835Z" fill="black"/>
<path fill-rule="evenodd" clip-rule="evenodd" d="M1092.86 471.835L1071.43 450.388H1092.86V471.835Z" fill="black"/>
<path fill-rule="evenodd" clip-rule="evenodd" d="M1092.86 493.282H1114.29V471.835H1092.86V493.282Z" fill="black"/>
<path fill-rule="evenodd" clip-rule="evenodd" d="M1028.57 536.176H1007.14L1028.57 514.729V536.176Z" fill="black"/>
<path fill-rule="evenodd" clip-rule="evenodd" d="M1071.43 536.176H1050V514.729L1071.43 536.176Z" fill="black"/>
<path fill-rule="evenodd" clip-rule="evenodd" d="M1114.29 536.176H1092.86V514.729L1114.29 536.176Z" fill="black"/>
<path fill-rule="evenodd" clip-rule="evenodd" d="M1007.14 579.07H1028.57V557.623H1007.14V579.07Z" fill="black"/>
<path fill-rule="evenodd" clip-rule="evenodd" d="M1028.57 557.623H1050V536.176H1028.57V557.623Z" fill="black"/>
<path fill-rule="evenodd" clip-rule="evenodd" d="M1050 579.07H1071.43V557.623H1050V579.07Z" fill="black"/>
<path fill-rule="evenodd" clip-rule="evenodd" d="M1071.43 557.623H1092.86V536.176H1071.43V557.623Z" fill="black"/>
<path fill-rule="evenodd" clip-rule="evenodd" d="M1092.86 579.07H1114.29V557.623H1092.86V579.07Z" fill="black"/>
<path fill-rule="evenodd" clip-rule="evenodd" d="M1028.57 600.517H1050V579.07H1028.57V600.517Z" fill="black"/>
<path fill-rule="evenodd" clip-rule="evenodd" d="M1050 621.964H1071.43V600.517H1050V621.964Z" fill="black"/>
<path fill-rule="evenodd" clip-rule="evenodd" d="M1071.43 600.517H1092.86V579.07H1071.43V600.517Z" fill="black"/>
<path fill-rule="evenodd" clip-rule="evenodd" d="M1092.86 621.964V600.517H1114.29L1092.86 621.964Z" fill="black"/>
<path fill-rule="evenodd" clip-rule="evenodd" d="M964.286 579.07H985.714V557.623H964.286V579.07Z" fill="black"/>
<path fill-rule="evenodd" clip-rule="evenodd" d="M985.714 557.623H1007.14V536.176H985.714V557.623Z" fill="black"/>
<path fill-rule="evenodd" clip-rule="evenodd" d="M985.714 600.517V579.07H1007.14L985.714 600.517Z" fill="black"/>
<path fill-rule="evenodd" clip-rule="evenodd" d="M964.286 471.835H985.714V450.388H964.286V471.835Z" fill="#161616"/>
<path fill-rule="evenodd" clip-rule="evenodd" d="M1092.86 471.835H1114.29V450.388H1092.86V471.835Z" fill="#161616"/>
<path fill-rule="evenodd" clip-rule="evenodd" d="M1028.57 536.176H1050V514.729H1028.57V536.176Z" fill="#161616"/>
<path fill-rule="evenodd" clip-rule="evenodd" d="M1092.86 514.729H1114.29V493.282H1092.86V514.729Z" fill="#161616"/>
<path fill-rule="evenodd" clip-rule="evenodd" d="M1007.14 557.623H1028.57V536.176H1007.14V557.623Z" fill="#161616"/>
<path fill-rule="evenodd" clip-rule="evenodd" d="M1028.57 579.07H1050V557.623H1028.57V579.07Z" fill="#161616"/>
<path fill-rule="evenodd" clip-rule="evenodd" d="M1050 557.623H1071.43V536.176H1050V557.623Z" fill="#161616"/>
<path fill-rule="evenodd" clip-rule="evenodd" d="M1071.43 579.07H1092.86V557.623H1071.43V579.07Z" fill="#161616"/>
<path fill-rule="evenodd" clip-rule="evenodd" d="M1092.86 557.623H1114.29V536.176H1092.86V557.623Z" fill="#161616"/>
<path fill-rule="evenodd" clip-rule="evenodd" d="M1007.14 600.517H1028.57V579.07H1007.14V600.517Z" fill="#161616"/>
<path fill-rule="evenodd" clip-rule="evenodd" d="M1050 621.964L1028.57 600.517H1050V621.964Z" fill="#161616"/>
<path fill-rule="evenodd" clip-rule="evenodd" d="M1050 600.517H1071.43V579.07H1050V600.517Z" fill="#161616"/>
<path fill-rule="evenodd" clip-rule="evenodd" d="M1071.43 621.964H1092.86V600.517H1071.43V621.964Z" fill="#161616"/>
<path fill-rule="evenodd" clip-rule="evenodd" d="M1092.86 600.517H1114.29V579.07H1092.86V600.517Z" fill="#161616"/>
<path fill-rule="evenodd" clip-rule="evenodd" d="M985.714 557.623H964.286L985.714 536.176V557.623Z" fill="#161616"/>
<path fill-rule="evenodd" clip-rule="evenodd" d="M985.714 579.07H1007.14V557.623H985.714V579.07Z" fill="#161616"/>
<path fill-rule="evenodd" clip-rule="evenodd" d="M964.286 600.517H985.714V579.07H964.286V600.517Z" fill="#161616"/>
<path fill-rule="evenodd" clip-rule="evenodd" d="M1157.14 600.517H1178.57V579.072L1157.14 600.517Z" fill="black"/>
<path fill-rule="evenodd" clip-rule="evenodd" d="M1157.14 643.412H1178.57V621.966H1157.14V643.412Z" fill="black"/>
<path fill-rule="evenodd" clip-rule="evenodd" d="M1157.14 621.964H1178.57V600.517H1157.14V621.964Z" fill="#161616"/>
<path fill-rule="evenodd" clip-rule="evenodd" d="M1178.57 600.517H1200V579.072H1178.57V600.517Z" fill="#161616"/>
<path fill-rule="evenodd" clip-rule="evenodd" d="M407.143 21.4471H428.571V0H407.143V21.4471Z" fill="black"/>
<path fill-rule="evenodd" clip-rule="evenodd" d="M385.714 42.8941H407.143V21.4471H385.714V42.8941Z" fill="black"/>
<path fill-rule="evenodd" clip-rule="evenodd" d="M407.143 64.3412H428.571V42.8941H407.143V64.3412Z" fill="black"/>
<path fill-rule="evenodd" clip-rule="evenodd" d="M385.714 85.7882H407.143V64.3412H385.714V85.7882Z" fill="black"/>
<path fill-rule="evenodd" clip-rule="evenodd" d="M407.143 107.235H428.571V85.7882H407.143V107.235Z" fill="black"/>
<path fill-rule="evenodd" clip-rule="evenodd" d="M385.714 128.682H407.143V107.235H385.714V128.682Z" fill="black"/>
<path fill-rule="evenodd" clip-rule="evenodd" d="M407.143 150.129V128.682H428.571L407.143 150.129Z" fill="black"/>
<path fill-rule="evenodd" clip-rule="evenodd" d="M385.714 171.576H407.143V150.129H385.714V171.576Z" fill="black"/>
<path fill-rule="evenodd" clip-rule="evenodd" d="M385.714 150.129L364.286 128.682H385.714V150.129Z" fill="black"/>
<path fill-rule="evenodd" clip-rule="evenodd" d="M364.286 107.235H385.714V85.7882H364.286V107.235Z" fill="black"/>
<path fill-rule="evenodd" clip-rule="evenodd" d="M428.571 85.7882H450V64.3412H428.571V85.7882Z" fill="black"/>
<path fill-rule="evenodd" clip-rule="evenodd" d="M428.571 128.682H450V107.235H428.571V128.682Z" fill="black"/>
<path fill-rule="evenodd" clip-rule="evenodd" d="M385.714 0.000457764L364.285 21.4475H385.714V0.000457764Z" fill="black"/>
<path fill-rule="evenodd" clip-rule="evenodd" d="M364.286 21.4471V42.8941H342.857L364.286 21.4471Z" fill="black"/>
<path fill-rule="evenodd" clip-rule="evenodd" d="M342.857 42.8941V64.3412H321.429L342.857 42.8941Z" fill="black"/>
<path fill-rule="evenodd" clip-rule="evenodd" d="M342.857 85.7882H364.286V64.3412H342.857V85.7882Z" fill="black"/>
<path fill-rule="evenodd" clip-rule="evenodd" d="M428.571 42.8941H450V21.4471H428.571V42.8941Z" fill="black"/>
<path fill-rule="evenodd" clip-rule="evenodd" d="M450 64.3412H471.429V42.8941H450V64.3412Z" fill="black"/>
<path fill-rule="evenodd" clip-rule="evenodd" d="M385.714 21.4471H407.143V0H385.714V21.4471Z" fill="#161616"/>
<path fill-rule="evenodd" clip-rule="evenodd" d="M407.143 42.8941H428.571V21.4471H407.143V42.8941Z" fill="#161616"/>
<path fill-rule="evenodd" clip-rule="evenodd" d="M385.714 64.3412H407.143V42.8941H385.714V64.3412Z" fill="#161616"/>
<path fill-rule="evenodd" clip-rule="evenodd" d="M407.143 85.7882H428.571V64.3412H407.143V85.7882Z" fill="#161616"/>
<path fill-rule="evenodd" clip-rule="evenodd" d="M385.714 107.235H407.143V85.7882H385.714V107.235Z" fill="#161616"/>
<path fill-rule="evenodd" clip-rule="evenodd" d="M407.143 128.682H428.571V107.235H407.143V128.682Z" fill="#161616"/>
<path fill-rule="evenodd" clip-rule="evenodd" d="M385.714 150.129H407.143V128.682H385.714V150.129Z" fill="#161616"/>
<path fill-rule="evenodd" clip-rule="evenodd" d="M364.286 85.7882H385.714V64.3412H364.286V85.7882Z" fill="#161616"/>
<path fill-rule="evenodd" clip-rule="evenodd" d="M428.571 107.235H450V85.7882H428.571V107.235Z" fill="#161616"/>
<path fill-rule="evenodd" clip-rule="evenodd" d="M364.286 42.8941H385.714V21.4471H364.286V42.8941Z" fill="#161616"/>
<path fill-rule="evenodd" clip-rule="evenodd" d="M364.286 128.682H385.714V107.235H364.286V128.682Z" fill="#161616"/>
<path fill-rule="evenodd" clip-rule="evenodd" d="M342.857 64.3412H364.286V42.8941H342.857V64.3412Z" fill="#161616"/>
<path fill-rule="evenodd" clip-rule="evenodd" d="M364.286 107.235L342.857 85.7882H364.286V107.235Z" fill="#161616"/>
<path fill-rule="evenodd" clip-rule="evenodd" d="M428.571 64.3412H450V42.8941H428.571V64.3412Z" fill="#161616"/>
<path fill-rule="evenodd" clip-rule="evenodd" d="M428.571 0.000457764V21.4475H450L428.571 0.000457764Z" fill="#161616"/>
<path fill-rule="evenodd" clip-rule="evenodd" d="M450 85.7882H471.429V64.3412H450V85.7882Z" fill="#161616"/>
<path fill-rule="evenodd" clip-rule="evenodd" d="M364.286 64.3412H385.714V42.8941H364.286V64.3412Z" fill="white"/>
<path fill-rule="evenodd" clip-rule="evenodd" d="M535.714 214.471H557.143V193.023H535.714V214.471Z" fill="black"/>
<path fill-rule="evenodd" clip-rule="evenodd" d="M492.857 150.129H514.286V128.682H492.857V150.129Z" fill="black"/>
<path fill-rule="evenodd" clip-rule="evenodd" d="M471.429 150.129H492.857V128.682H471.429V150.129Z" fill="#161616"/>
<path fill-rule="evenodd" clip-rule="evenodd" d="M492.857 193.023H514.286V171.576H492.857V193.023Z" fill="#161616"/>
<path fill-rule="evenodd" clip-rule="evenodd" d="M535.714 193.023H557.143V171.576H535.714V193.023Z" fill="#161616"/>
<path fill-rule="evenodd" clip-rule="evenodd" d="M535.714 214.471H514.286L535.714 193.023V214.471Z" fill="#161616"/>
</g>
</svg>
