<svg width="280" height="279" viewBox="0 0 280 279" fill="none" xmlns="http://www.w3.org/2000/svg">
<path fill-rule="evenodd" clip-rule="evenodd" d="M150.857 193.176H172.286V171.729H150.857V193.176Z" fill="black"/>
<path fill-rule="evenodd" clip-rule="evenodd" d="M108 193.176H129.429V171.729H108V193.176Z" fill="black"/>
<path fill-rule="evenodd" clip-rule="evenodd" d="M129.429 214.623H150.857V193.176H129.429V214.623Z" fill="black"/>
<path fill-rule="evenodd" clip-rule="evenodd" d="M129.429 171.729H150.857V150.282H129.429V171.729Z" fill="black"/>
<path fill-rule="evenodd" clip-rule="evenodd" d="M172.286 171.729V150.282H193.714L172.286 171.729Z" fill="black"/>
<path fill-rule="evenodd" clip-rule="evenodd" d="M43.7143 128.835H65.1429V107.388H43.7143V128.835Z" fill="black"/>
<path fill-rule="evenodd" clip-rule="evenodd" d="M43.7143 85.941H65.1429V64.494H43.7143V85.941Z" fill="black"/>
<path fill-rule="evenodd" clip-rule="evenodd" d="M215.143 85.941H236.571V64.494H215.143V85.941Z" fill="black"/>
<path fill-rule="evenodd" clip-rule="evenodd" d="M236.571 64.494H258V43.0469H236.571V64.494Z" fill="black"/>
<path fill-rule="evenodd" clip-rule="evenodd" d="M43.7143 43.0469H65.1429V21.5999H43.7143V43.0469Z" fill="black"/>
<path fill-rule="evenodd" clip-rule="evenodd" d="M215.143 43.0469H236.571V21.5999H215.143V43.0469Z" fill="black"/>
<path fill-rule="evenodd" clip-rule="evenodd" d="M258 43.0469H279.429V21.5999H258V43.0469Z" fill="black"/>
<path fill-rule="evenodd" clip-rule="evenodd" d="M22.2857 107.388H43.7143V85.941H22.2857V107.388Z" fill="black"/>
<path fill-rule="evenodd" clip-rule="evenodd" d="M0.857178 107.388H22.2857V128.835" fill="black"/>
<path fill-rule="evenodd" clip-rule="evenodd" d="M22.2857 64.494H43.7143V43.0469H22.2857V64.494Z" fill="black"/>
<path fill-rule="evenodd" clip-rule="evenodd" d="M0.857178 85.941H22.2857V64.494H0.857178V85.941Z" fill="black"/>
<path fill-rule="evenodd" clip-rule="evenodd" d="M108 278.964H129.429V257.517H108V278.964Z" fill="black"/>
<path fill-rule="evenodd" clip-rule="evenodd" d="M150.857 236.07H172.286V214.623H150.857V236.07Z" fill="black"/>
<path fill-rule="evenodd" clip-rule="evenodd" d="M108 236.07H129.429V214.623H108V236.07Z" fill="black"/>
<path fill-rule="evenodd" clip-rule="evenodd" d="M129.429 257.517H150.857V236.07H129.429V257.517Z" fill="black"/>
<path fill-rule="evenodd" clip-rule="evenodd" d="M193.714 236.07H215.143V214.623H193.714V236.07Z" fill="black"/>
<path fill-rule="evenodd" clip-rule="evenodd" d="M86.5714 150.282L65.1429 128.835H86.5714V150.282Z" fill="black"/>
<path fill-rule="evenodd" clip-rule="evenodd" d="M65.1429 107.388H86.5714V85.941H65.1429V107.388Z" fill="black"/>
<path fill-rule="evenodd" clip-rule="evenodd" d="M65.1429 64.494H86.5714V43.0469H65.1429V64.494Z" fill="black"/>
<path fill-rule="evenodd" clip-rule="evenodd" d="M86.5714 128.835H108V107.388H86.5714V128.835Z" fill="black"/>
<path fill-rule="evenodd" clip-rule="evenodd" d="M86.5714 85.941H108V64.494H86.5714V85.941Z" fill="black"/>
<path fill-rule="evenodd" clip-rule="evenodd" d="M108 43.0469H86.5714V21.5999L108 43.0469Z" fill="black"/>
<path fill-rule="evenodd" clip-rule="evenodd" d="M108 150.282H129.429V128.835H108V150.282Z" fill="black"/>
<path fill-rule="evenodd" clip-rule="evenodd" d="M108 107.388H129.429V85.941H108V107.388Z" fill="black"/>
<path fill-rule="evenodd" clip-rule="evenodd" d="M129.429 128.835H150.857V107.388H129.429V128.835Z" fill="black"/>
<path fill-rule="evenodd" clip-rule="evenodd" d="M129.429 85.941H150.857V64.494H129.429V85.941Z" fill="black"/>
<path fill-rule="evenodd" clip-rule="evenodd" d="M150.857 150.282H172.286V128.835H150.857V150.282Z" fill="black"/>
<path fill-rule="evenodd" clip-rule="evenodd" d="M150.857 107.388H172.286V85.941H150.857V107.388Z" fill="black"/>
<path fill-rule="evenodd" clip-rule="evenodd" d="M172.286 128.835H193.714V107.388H172.286V128.835Z" fill="black"/>
<path fill-rule="evenodd" clip-rule="evenodd" d="M172.286 85.941H193.714V64.494H172.286V85.941Z" fill="black"/>
<path fill-rule="evenodd" clip-rule="evenodd" d="M193.714 150.282H215.143V128.835H193.714V150.282Z" fill="black"/>
<path fill-rule="evenodd" clip-rule="evenodd" d="M86.5714 171.729H108V150.282H86.5714V171.729Z" fill="black"/>
<path fill-rule="evenodd" clip-rule="evenodd" d="M108 64.494H129.429V43.0469H108V64.494Z" fill="black"/>
<path fill-rule="evenodd" clip-rule="evenodd" d="M150.857 64.494H172.286V43.0469H150.857V64.494Z" fill="black"/>
<path fill-rule="evenodd" clip-rule="evenodd" d="M172.286 43.0469H193.714V21.5999H172.286V43.0469Z" fill="black"/>
<path fill-rule="evenodd" clip-rule="evenodd" d="M193.714 21.5999H215.143V0.152832H193.714V21.5999Z" fill="black"/>
<path fill-rule="evenodd" clip-rule="evenodd" d="M129.429 43.0469H150.857V21.5999H129.429V43.0469Z" fill="black"/>
<path fill-rule="evenodd" clip-rule="evenodd" d="M129.429 193.176H150.857V171.729H129.429V193.176Z" fill="#161616"/>
<path fill-rule="evenodd" clip-rule="evenodd" d="M150.857 214.623H172.286V193.176H150.857V214.623Z" fill="#161616"/>
<path fill-rule="evenodd" clip-rule="evenodd" d="M108 214.623H129.429V193.176H108V214.623Z" fill="#161616"/>
<path fill-rule="evenodd" clip-rule="evenodd" d="M150.857 171.729H172.286V150.282H150.857V171.729Z" fill="#161616"/>
<path fill-rule="evenodd" clip-rule="evenodd" d="M108 171.729H129.429V150.282H108V171.729Z" fill="#161616"/>
<path fill-rule="evenodd" clip-rule="evenodd" d="M43.7143 107.388H65.1429V85.941H43.7143V107.388Z" fill="#161616"/>
<path fill-rule="evenodd" clip-rule="evenodd" d="M215.143 64.494H236.571V43.0469H215.143V64.494Z" fill="#161616"/>
<path fill-rule="evenodd" clip-rule="evenodd" d="M43.7143 64.494H65.1429V43.0469H43.7143V64.494Z" fill="#161616"/>
<path fill-rule="evenodd" clip-rule="evenodd" d="M258 64.494V43.0469H279.429L258 64.494Z" fill="#161616"/>
<path fill-rule="evenodd" clip-rule="evenodd" d="M236.571 85.941H258V64.494H236.571V85.941Z" fill="#161616"/>
<path fill-rule="evenodd" clip-rule="evenodd" d="M236.571 43.0469H258V21.5999H236.571V43.0469Z" fill="#161616"/>
<path fill-rule="evenodd" clip-rule="evenodd" d="M0.857178 107.388H22.2857V85.941H0.857178V107.388Z" fill="#161616"/>
<path fill-rule="evenodd" clip-rule="evenodd" d="M22.2857 128.835H43.7143V107.388H22.2857V128.835Z" fill="#161616"/>
<path fill-rule="evenodd" clip-rule="evenodd" d="M22.2857 64.494H0.857178L22.2857 43.0469V64.494Z" fill="#161616"/>
<path fill-rule="evenodd" clip-rule="evenodd" d="M22.2857 85.941H43.7143V64.494H22.2857V85.941Z" fill="#161616"/>
<path fill-rule="evenodd" clip-rule="evenodd" d="M43.7143 43.0469H22.2857L43.7143 21.5999V43.0469Z" fill="#161616"/>
<path fill-rule="evenodd" clip-rule="evenodd" d="M129.429 278.964V257.517H150.857L129.429 278.964Z" fill="#161616"/>
<path fill-rule="evenodd" clip-rule="evenodd" d="M129.429 236.07H150.857V214.623H129.429V236.07Z" fill="#161616"/>
<path fill-rule="evenodd" clip-rule="evenodd" d="M150.857 257.517V236.07H172.286L150.857 257.517Z" fill="#161616"/>
<path fill-rule="evenodd" clip-rule="evenodd" d="M108 257.517H129.429V236.07H108V257.517Z" fill="#161616"/>
<path fill-rule="evenodd" clip-rule="evenodd" d="M193.714 257.517H215.143V236.07H193.714V257.517Z" fill="#161616"/>
<path fill-rule="evenodd" clip-rule="evenodd" d="M65.1429 128.835H86.5714V107.388H65.1429V128.835Z" fill="#161616"/>
<path fill-rule="evenodd" clip-rule="evenodd" d="M65.1429 85.941H86.5714V64.494H65.1429V85.941Z" fill="#161616"/>
<path fill-rule="evenodd" clip-rule="evenodd" d="M86.5714 150.282H108V128.835H86.5714V150.282Z" fill="#161616"/>
<path fill-rule="evenodd" clip-rule="evenodd" d="M86.5714 107.388H108V85.941H86.5714V107.388Z" fill="#161616"/>
<path fill-rule="evenodd" clip-rule="evenodd" d="M86.5714 64.494H108V43.0469H86.5714V64.494Z" fill="#161616"/>
<path fill-rule="evenodd" clip-rule="evenodd" d="M65.1429 43.0469H86.5714V21.5999H65.1429V43.0469Z" fill="#161616"/>
<path fill-rule="evenodd" clip-rule="evenodd" d="M108 128.835H129.429V107.388H108V128.835Z" fill="#161616"/>
<path fill-rule="evenodd" clip-rule="evenodd" d="M108 85.941H129.429V64.494H108V85.941Z" fill="#161616"/>
<path fill-rule="evenodd" clip-rule="evenodd" d="M129.429 150.282H150.857V128.835H129.429V150.282Z" fill="#161616"/>
<path fill-rule="evenodd" clip-rule="evenodd" d="M129.429 107.388H150.857V85.941H129.429V107.388Z" fill="#161616"/>
<path fill-rule="evenodd" clip-rule="evenodd" d="M150.857 128.835H172.286V107.388H150.857V128.835Z" fill="#161616"/>
<path fill-rule="evenodd" clip-rule="evenodd" d="M150.857 85.941H172.286V64.494H150.857V85.941Z" fill="#161616"/>
<path fill-rule="evenodd" clip-rule="evenodd" d="M172.286 150.282H193.714V128.835H172.286V150.282Z" fill="#161616"/>
<path fill-rule="evenodd" clip-rule="evenodd" d="M172.286 107.388H193.714V85.941H172.286V107.388Z" fill="#161616"/>
<path fill-rule="evenodd" clip-rule="evenodd" d="M172.286 64.494H193.714V43.0469H172.286V64.494Z" fill="#161616"/>
<path fill-rule="evenodd" clip-rule="evenodd" d="M193.714 128.835H215.143V107.388H193.714V128.835Z" fill="#161616"/>
<path fill-rule="evenodd" clip-rule="evenodd" d="M129.429 64.494H150.857V43.0469H129.429V64.494Z" fill="#161616"/>
<path fill-rule="evenodd" clip-rule="evenodd" d="M129.429 21.5968V43.0469H108L129.429 21.5968Z" fill="#161616"/>
<path fill-rule="evenodd" clip-rule="evenodd" d="M193.714 43.0469H215.143V21.5999H193.714V43.0469Z" fill="#161616"/>
<path fill-rule="evenodd" clip-rule="evenodd" d="M193.714 0.14975V21.5999H172.286L193.714 0.14975Z" fill="#161616"/>
<path fill-rule="evenodd" clip-rule="evenodd" d="M172.286 21.5968V43.0469H150.857L172.286 21.5968Z" fill="#161616"/>
<path fill-rule="evenodd" clip-rule="evenodd" d="M150.857 0.14975V21.5999H129.429L150.857 0.14975Z" fill="#161616"/>
<path fill-rule="evenodd" clip-rule="evenodd" d="M236.573 21.5999H215.143V0.151306L236.573 21.5999Z" fill="#161616"/>
</svg>
