<svg class="aus" width="173" height="172" viewBox="0 0 173 172" fill="none" xmlns="http://www.w3.org/2000/svg">
<path fill-rule="evenodd" clip-rule="evenodd" d="M0.857178 21.8351H22.2858V0.388062H0.857178V21.8351Z" fill="black"/>
<path fill-rule="evenodd" clip-rule="evenodd" d="M22.2856 43.2822V21.8351H43.7142L22.2856 43.2822Z" fill="black"/>
<path fill-rule="evenodd" clip-rule="evenodd" d="M43.7144 21.8351V0.388062H65.1429L43.7144 21.8351Z" fill="black"/>
<path fill-rule="evenodd" clip-rule="evenodd" d="M150.857 21.8351L129.429 0.388062H150.857V21.8351Z" fill="black"/>
<path fill-rule="evenodd" clip-rule="evenodd" d="M150.857 43.2822H172.286V21.8351H150.857V43.2822Z" fill="black"/>
<path fill-rule="evenodd" clip-rule="evenodd" d="M86.5714 86.1763H65.1428L86.5714 64.7292V86.1763Z" fill="black"/>
<path fill-rule="evenodd" clip-rule="evenodd" d="M129.429 86.1763H108V64.7292L129.429 86.1763Z" fill="black"/>
<path fill-rule="evenodd" clip-rule="evenodd" d="M172.286 86.1763H150.857V64.7292L172.286 86.1763Z" fill="black"/>
<path fill-rule="evenodd" clip-rule="evenodd" d="M65.1428 129.07H86.5714V107.623H65.1428V129.07Z" fill="black"/>
<path fill-rule="evenodd" clip-rule="evenodd" d="M86.5714 107.623H108V86.1763H86.5714V107.623Z" fill="black"/>
<path fill-rule="evenodd" clip-rule="evenodd" d="M108 129.07H129.429V107.623H108V129.07Z" fill="black"/>
<path fill-rule="evenodd" clip-rule="evenodd" d="M129.429 107.623H150.857V86.1763H129.429V107.623Z" fill="black"/>
<path fill-rule="evenodd" clip-rule="evenodd" d="M150.857 129.07H172.286V107.623H150.857V129.07Z" fill="black"/>
<path fill-rule="evenodd" clip-rule="evenodd" d="M86.5714 150.517H108V129.07H86.5714V150.517Z" fill="black"/>
<path fill-rule="evenodd" clip-rule="evenodd" d="M108 171.964H129.429V150.517H108V171.964Z" fill="black"/>
<path fill-rule="evenodd" clip-rule="evenodd" d="M129.429 150.517H150.857V129.07H129.429V150.517Z" fill="black"/>
<path fill-rule="evenodd" clip-rule="evenodd" d="M150.857 171.964V150.517H172.286L150.857 171.964Z" fill="black"/>
<path fill-rule="evenodd" clip-rule="evenodd" d="M22.2856 129.07H43.7142V107.623H22.2856V129.07Z" fill="black"/>
<path fill-rule="evenodd" clip-rule="evenodd" d="M43.7144 107.623H65.1429V86.1763H43.7144V107.623Z" fill="black"/>
<path fill-rule="evenodd" clip-rule="evenodd" d="M43.7144 150.517V129.07H65.1429L43.7144 150.517Z" fill="black"/>
<path fill-rule="evenodd" clip-rule="evenodd" d="M22.2856 21.8351H43.7142V0.388062H22.2856V21.8351Z" fill="#161616"/>
<path fill-rule="evenodd" clip-rule="evenodd" d="M150.857 21.8351H172.286V0.388062H150.857V21.8351Z" fill="#161616"/>
<path fill-rule="evenodd" clip-rule="evenodd" d="M86.5714 86.1763H108V64.7292H86.5714V86.1763Z" fill="#161616"/>
<path fill-rule="evenodd" clip-rule="evenodd" d="M150.857 64.7293H172.286V43.2822H150.857V64.7293Z" fill="#161616"/>
<path fill-rule="evenodd" clip-rule="evenodd" d="M65.1428 107.623H86.5714V86.1763H65.1428V107.623Z" fill="#161616"/>
<path fill-rule="evenodd" clip-rule="evenodd" d="M86.5714 129.07H108V107.623H86.5714V129.07Z" fill="#161616"/>
<path fill-rule="evenodd" clip-rule="evenodd" d="M108 107.623H129.429V86.1763H108V107.623Z" fill="#161616"/>
<path fill-rule="evenodd" clip-rule="evenodd" d="M129.429 129.07H150.857V107.623H129.429V129.07Z" fill="#161616"/>
<path fill-rule="evenodd" clip-rule="evenodd" d="M150.857 107.623H172.286V86.1763H150.857V107.623Z" fill="#161616"/>
<path fill-rule="evenodd" clip-rule="evenodd" d="M65.1428 150.517H86.5714V129.07H65.1428V150.517Z" fill="#161616"/>
<path fill-rule="evenodd" clip-rule="evenodd" d="M108 171.964L86.5714 150.517H108V171.964Z" fill="#161616"/>
<path fill-rule="evenodd" clip-rule="evenodd" d="M108 150.517H129.429V129.07H108V150.517Z" fill="#161616"/>
<path fill-rule="evenodd" clip-rule="evenodd" d="M129.429 171.964H150.857V150.517H129.429V171.964Z" fill="#161616"/>
<path fill-rule="evenodd" clip-rule="evenodd" d="M150.857 150.517H172.286V129.07H150.857V150.517Z" fill="#161616"/>
<path fill-rule="evenodd" clip-rule="evenodd" d="M43.7142 107.623H22.2856L43.7142 86.1763V107.623Z" fill="#161616"/>
<path fill-rule="evenodd" clip-rule="evenodd" d="M43.7144 129.07H65.1429V107.623H43.7144V129.07Z" fill="#161616"/>
<path fill-rule="evenodd" clip-rule="evenodd" d="M22.2856 150.517H43.7142V129.07H22.2856V150.517Z" fill="#161616"/>
</svg>
