<svg width="258" height="301" viewBox="0 0 258 301" fill="none" xmlns="http://www.w3.org/2000/svg">
<path fill-rule="evenodd" clip-rule="evenodd" d="M21.7143 236.259H43.1429V214.812H21.7143V236.259Z" fill="black"/>
<path fill-rule="evenodd" clip-rule="evenodd" d="M21.7143 193.365H43.1429V171.918H21.7143V193.365Z" fill="black"/>
<path fill-rule="evenodd" clip-rule="evenodd" d="M86 129.023H107.429V107.576H86V129.023Z" fill="black"/>
<path fill-rule="evenodd" clip-rule="evenodd" d="M64.5714 150.471H86V129.023H64.5714V150.471Z" fill="black"/>
<path fill-rule="evenodd" clip-rule="evenodd" d="M128.857 86.1294H150.286V64.6823H128.857V86.1294Z" fill="black"/>
<path fill-rule="evenodd" clip-rule="evenodd" d="M64.5714 150.471H86V129.023H64.5714V150.471Z" fill="black"/>
<path fill-rule="evenodd" clip-rule="evenodd" d="M0.285706 257.706H21.7143V236.259H0.285706V257.706Z" fill="black"/>
<path fill-rule="evenodd" clip-rule="evenodd" d="M107.429 21.7882H128.857V0.341156H107.429V21.7882Z" fill="black"/>
<path fill-rule="evenodd" clip-rule="evenodd" d="M64.5714 236.259H86V214.812H64.5714V236.259Z" fill="black"/>
<path fill-rule="evenodd" clip-rule="evenodd" d="M86 193.365H64.5714L86 171.918V193.365Z" fill="black"/>
<path fill-rule="evenodd" clip-rule="evenodd" d="M43.1429 214.812H64.5714V193.365H43.1429V214.812Z" fill="black"/>
<path fill-rule="evenodd" clip-rule="evenodd" d="M107.429 107.576H128.857V86.1294H107.429V107.576Z" fill="black"/>
<path fill-rule="evenodd" clip-rule="evenodd" d="M150.286 107.576H171.714V86.1294H150.286V107.576Z" fill="black"/>
<path fill-rule="evenodd" clip-rule="evenodd" d="M150.286 193.365H171.714V171.918H150.286V193.365Z" fill="black"/>
<path fill-rule="evenodd" clip-rule="evenodd" d="M150.286 150.471H171.714V129.023H150.286V150.471Z" fill="black"/>
<path fill-rule="evenodd" clip-rule="evenodd" d="M128.857 171.916V193.365H107.427L128.857 171.916Z" fill="black"/>
<path fill-rule="evenodd" clip-rule="evenodd" d="M128.857 257.706H150.286V236.259H128.857V257.706Z" fill="black"/>
<path fill-rule="evenodd" clip-rule="evenodd" d="M128.857 214.812H150.286V193.365H128.857V214.812Z" fill="black"/>
<path fill-rule="evenodd" clip-rule="evenodd" d="M107.429 236.259H128.857V214.812H107.429V236.259Z" fill="black"/>
<path fill-rule="evenodd" clip-rule="evenodd" d="M86 214.812H107.429V193.365H86V214.812Z" fill="black"/>
<path fill-rule="evenodd" clip-rule="evenodd" d="M150.286 236.259H171.714V214.812H150.286V236.259Z" fill="black"/>
<path fill-rule="evenodd" clip-rule="evenodd" d="M193.143 257.706L171.714 236.259H193.143V257.706Z" fill="black"/>
<path fill-rule="evenodd" clip-rule="evenodd" d="M171.714 171.918H193.143V150.471H171.714V171.918Z" fill="black"/>
<path fill-rule="evenodd" clip-rule="evenodd" d="M171.714 129.023H193.143V107.576H171.714V129.023Z" fill="black"/>
<path fill-rule="evenodd" clip-rule="evenodd" d="M171.714 214.812H193.143V193.365H171.714V214.812Z" fill="black"/>
<path fill-rule="evenodd" clip-rule="evenodd" d="M193.143 193.365H214.571V171.918H193.143V193.365Z" fill="black"/>
<path fill-rule="evenodd" clip-rule="evenodd" d="M193.143 150.471H214.571V129.023H193.143V150.471Z" fill="black"/>
<path fill-rule="evenodd" clip-rule="evenodd" d="M193.143 236.259H214.571V214.812H193.143V236.259Z" fill="black"/>
<path fill-rule="evenodd" clip-rule="evenodd" d="M214.571 171.918H236V150.471H214.571V171.918Z" fill="black"/>
<path fill-rule="evenodd" clip-rule="evenodd" d="M214.571 129.023H236V107.576H214.571V129.023Z" fill="black"/>
<path fill-rule="evenodd" clip-rule="evenodd" d="M64.5714 129.023H86V107.576H64.5714V129.023Z" fill="#161616"/>
<path fill-rule="evenodd" clip-rule="evenodd" d="M86 150.471H107.429V129.023H86V150.471Z" fill="#161616"/>
<path fill-rule="evenodd" clip-rule="evenodd" d="M150.286 86.1294H171.714V64.6823H150.286V86.1294Z" fill="#161616"/>
<path fill-rule="evenodd" clip-rule="evenodd" d="M128.857 86.1294H107.429L128.857 64.6823V86.1294Z" fill="#161616"/>
<path fill-rule="evenodd" clip-rule="evenodd" d="M107.429 107.576H86L107.429 86.1294V107.576Z" fill="#161616"/>
<path fill-rule="evenodd" clip-rule="evenodd" d="M64.5714 129.023H86V107.576H64.5714V129.023Z" fill="#161616"/>
<path fill-rule="evenodd" clip-rule="evenodd" d="M21.7143 257.706H43.1429V236.259H21.7143V257.706Z" fill="#161616"/>
<path fill-rule="evenodd" clip-rule="evenodd" d="M21.7143 236.259H0.285706L21.7143 214.812V236.259Z" fill="#161616"/>
<path fill-rule="evenodd" clip-rule="evenodd" d="M64.5714 214.812H86V193.365H64.5714V214.812Z" fill="#161616"/>
<path fill-rule="evenodd" clip-rule="evenodd" d="M86 257.706L64.5714 236.259H86V257.706Z" fill="#161616"/>
<path fill-rule="evenodd" clip-rule="evenodd" d="M43.1429 236.259H64.5714V214.812H43.1429V236.259Z" fill="#161616"/>
<path fill-rule="evenodd" clip-rule="evenodd" d="M128.857 107.576H150.286V86.1294H128.857V107.576Z" fill="#161616"/>
<path fill-rule="evenodd" clip-rule="evenodd" d="M150.286 171.918H171.714V150.471H150.286V171.918Z" fill="#161616"/>
<path fill-rule="evenodd" clip-rule="evenodd" d="M150.286 129.023H171.714V107.576H150.286V129.023Z" fill="#161616"/>
<path fill-rule="evenodd" clip-rule="evenodd" d="M128.857 236.259H150.286V214.812H128.857V236.259Z" fill="#161616"/>
<path fill-rule="evenodd" clip-rule="evenodd" d="M107.429 214.812H128.857V193.365H107.429V214.812Z" fill="#161616"/>
<path fill-rule="evenodd" clip-rule="evenodd" d="M107.429 257.706H128.857V236.259H107.429V257.706Z" fill="#161616"/>
<path fill-rule="evenodd" clip-rule="evenodd" d="M128.857 279.153V257.706H150.286L128.857 279.153Z" fill="#161616"/>
<path fill-rule="evenodd" clip-rule="evenodd" d="M86 236.259H107.429V214.812H86V236.259Z" fill="#161616"/>
<path fill-rule="evenodd" clip-rule="evenodd" d="M193.144 107.576H171.714V86.1278L193.144 107.576Z" fill="#161616"/>
<path fill-rule="evenodd" clip-rule="evenodd" d="M64.5714 193.365H43.1429V171.918L64.5714 193.365Z" fill="#161616"/>
<path fill-rule="evenodd" clip-rule="evenodd" d="M21.7143 214.812H43.1429V193.365H21.7143V214.812Z" fill="#161616"/>
<path fill-rule="evenodd" clip-rule="evenodd" d="M128.857 193.365H150.286V171.918H128.857V193.365Z" fill="#161616"/>
<path fill-rule="evenodd" clip-rule="evenodd" d="M86 193.365H107.429V171.918H86V193.365Z" fill="#161616"/>
<path fill-rule="evenodd" clip-rule="evenodd" d="M150.286 214.812H171.714V193.365H150.286V214.812Z" fill="#161616"/>
<path fill-rule="evenodd" clip-rule="evenodd" d="M171.714 150.471H193.143V129.023H171.714V150.471Z" fill="#161616"/>
<path fill-rule="evenodd" clip-rule="evenodd" d="M171.714 193.365H193.143V171.918H171.714V193.365Z" fill="#161616"/>
<path fill-rule="evenodd" clip-rule="evenodd" d="M171.714 236.259H193.143V214.812H171.714V236.259Z" fill="#161616"/>
<path fill-rule="evenodd" clip-rule="evenodd" d="M193.143 171.918H214.571V150.471H193.143V171.918Z" fill="#161616"/>
<path fill-rule="evenodd" clip-rule="evenodd" d="M193.143 129.023H214.571V107.576H193.143V129.023Z" fill="#161616"/>
<path fill-rule="evenodd" clip-rule="evenodd" d="M193.143 214.812H214.571V193.365H193.143V214.812Z" fill="#161616"/>
<path fill-rule="evenodd" clip-rule="evenodd" d="M214.571 150.471H236V129.023H214.571V150.471Z" fill="#161616"/>
<path fill-rule="evenodd" clip-rule="evenodd" d="M214.571 193.365H236V171.918H214.571V193.365Z" fill="#161616"/>
<path fill-rule="evenodd" clip-rule="evenodd" d="M236 129.023H257.429V107.576H236V129.023Z" fill="#161616"/>
<path fill-rule="evenodd" clip-rule="evenodd" d="M193.143 257.706H214.571V236.259H193.143V257.706Z" fill="#161616"/>
<path fill-rule="evenodd" clip-rule="evenodd" d="M214.571 86.1294H236V64.6823H214.571V86.1294Z" fill="black"/>
<path fill-rule="evenodd" clip-rule="evenodd" d="M236 64.6823V43.2353H257.429L236 64.6823Z" fill="black"/>
<path fill-rule="evenodd" clip-rule="evenodd" d="M236 43.2353H214.571L236 21.7882V43.2353Z" fill="black"/>
<path fill-rule="evenodd" clip-rule="evenodd" d="M214.571 64.6823H236V43.2353H214.571V64.6823Z" fill="#161616"/>
<path fill-rule="evenodd" clip-rule="evenodd" d="M236 43.2353H257.429V21.7882H236V43.2353Z" fill="#161616"/>
<path fill-rule="evenodd" clip-rule="evenodd" d="M214.571 214.812H236V193.365H214.571V214.812Z" fill="black"/>
<path fill-rule="evenodd" clip-rule="evenodd" d="M236 193.365H257.429V171.918H236V193.365Z" fill="black"/>
<path fill-rule="evenodd" clip-rule="evenodd" d="M236 150.471H257.429V129.023H236V150.471Z" fill="black"/>
<path fill-rule="evenodd" clip-rule="evenodd" d="M235.998 214.812H257.429V236.259L235.998 214.812Z" fill="black"/>
<path fill-rule="evenodd" clip-rule="evenodd" d="M236 279.153H257.429V257.706H236V279.153Z" fill="black"/>
<path fill-rule="evenodd" clip-rule="evenodd" d="M236 214.812H257.429V193.365H236V214.812Z" fill="#161616"/>
<path fill-rule="evenodd" clip-rule="evenodd" d="M236 257.706L257.429 236.259V257.706H236Z" fill="#161616"/>
<path fill-rule="evenodd" clip-rule="evenodd" d="M236 279.153L257.429 300.6V279.153H236Z" fill="#161616"/>
</svg>
