<svg width="151" height="172" viewBox="0 0 151 172" fill="none" xmlns="http://www.w3.org/2000/svg">
<path fill-rule="evenodd" clip-rule="evenodd" d="M86.1428 21.4471H107.571V0H86.1428V21.4471Z" fill="black"/>
<path fill-rule="evenodd" clip-rule="evenodd" d="M64.7143 42.8941H86.1429V21.4471H64.7143V42.8941Z" fill="black"/>
<path fill-rule="evenodd" clip-rule="evenodd" d="M86.1428 64.3412H107.571V42.8941H86.1428V64.3412Z" fill="black"/>
<path fill-rule="evenodd" clip-rule="evenodd" d="M64.7143 85.7882H86.1429V64.3412H64.7143V85.7882Z" fill="black"/>
<path fill-rule="evenodd" clip-rule="evenodd" d="M86.1428 107.235H107.571V85.7882H86.1428V107.235Z" fill="black"/>
<path fill-rule="evenodd" clip-rule="evenodd" d="M64.7143 128.682H86.1429V107.235H64.7143V128.682Z" fill="black"/>
<path fill-rule="evenodd" clip-rule="evenodd" d="M86.1428 150.129V128.682H107.571L86.1428 150.129Z" fill="black"/>
<path fill-rule="evenodd" clip-rule="evenodd" d="M64.7143 171.576H86.1429V150.129H64.7143V171.576Z" fill="black"/>
<path fill-rule="evenodd" clip-rule="evenodd" d="M64.7143 150.129L43.2857 128.682H64.7143V150.129Z" fill="black"/>
<path fill-rule="evenodd" clip-rule="evenodd" d="M43.2857 107.235H64.7143V85.7882H43.2857V107.235Z" fill="black"/>
<path fill-rule="evenodd" clip-rule="evenodd" d="M107.571 85.7882H129V64.3412H107.571V85.7882Z" fill="black"/>
<path fill-rule="evenodd" clip-rule="evenodd" d="M107.571 128.682H129V107.235H107.571V128.682Z" fill="black"/>
<path fill-rule="evenodd" clip-rule="evenodd" d="M64.7137 0.000457764L43.2851 21.4475H64.7137V0.000457764Z" fill="black"/>
<path fill-rule="evenodd" clip-rule="evenodd" d="M43.2857 21.4471V42.8941H21.8571L43.2857 21.4471Z" fill="black"/>
<path fill-rule="evenodd" clip-rule="evenodd" d="M21.8571 42.8941V64.3412H0.428558L21.8571 42.8941Z" fill="black"/>
<path fill-rule="evenodd" clip-rule="evenodd" d="M21.8571 85.7882H43.2857V64.3412H21.8571V85.7882Z" fill="black"/>
<path fill-rule="evenodd" clip-rule="evenodd" d="M107.571 42.8941H129V21.4471H107.571V42.8941Z" fill="black"/>
<path fill-rule="evenodd" clip-rule="evenodd" d="M129 64.3412H150.429V42.8941H129V64.3412Z" fill="black"/>
<path fill-rule="evenodd" clip-rule="evenodd" d="M64.7143 21.4471H86.1429V0H64.7143V21.4471Z" fill="#161616"/>
<path fill-rule="evenodd" clip-rule="evenodd" d="M86.1428 42.8941H107.571V21.4471H86.1428V42.8941Z" fill="#161616"/>
<path fill-rule="evenodd" clip-rule="evenodd" d="M64.7143 64.3412H86.1429V42.8941H64.7143V64.3412Z" fill="#161616"/>
<path fill-rule="evenodd" clip-rule="evenodd" d="M86.1428 85.7882H107.571V64.3412H86.1428V85.7882Z" fill="#161616"/>
<path fill-rule="evenodd" clip-rule="evenodd" d="M64.7143 107.235H86.1429V85.7882H64.7143V107.235Z" fill="#161616"/>
<path fill-rule="evenodd" clip-rule="evenodd" d="M86.1428 128.682H107.571V107.235H86.1428V128.682Z" fill="#161616"/>
<path fill-rule="evenodd" clip-rule="evenodd" d="M64.7143 150.129H86.1429V128.682H64.7143V150.129Z" fill="#161616"/>
<path fill-rule="evenodd" clip-rule="evenodd" d="M43.2857 85.7882H64.7143V64.3412H43.2857V85.7882Z" fill="#161616"/>
<path fill-rule="evenodd" clip-rule="evenodd" d="M107.571 107.235H129V85.7882H107.571V107.235Z" fill="#161616"/>
<path fill-rule="evenodd" clip-rule="evenodd" d="M43.2857 42.8941H64.7143V21.4471H43.2857V42.8941Z" fill="#161616"/>
<path fill-rule="evenodd" clip-rule="evenodd" d="M43.2857 128.682H64.7143V107.235H43.2857V128.682Z" fill="#161616"/>
<path fill-rule="evenodd" clip-rule="evenodd" d="M21.8571 64.3412H43.2857V42.8941H21.8571V64.3412Z" fill="#161616"/>
<path fill-rule="evenodd" clip-rule="evenodd" d="M43.2857 107.235L21.8571 85.7882H43.2857V107.235Z" fill="#161616"/>
<path fill-rule="evenodd" clip-rule="evenodd" d="M107.571 64.3412H129V42.8941H107.571V64.3412Z" fill="#161616"/>
<path fill-rule="evenodd" clip-rule="evenodd" d="M107.571 0.000457764V21.4475H129L107.571 0.000457764Z" fill="#161616"/>
<path fill-rule="evenodd" clip-rule="evenodd" d="M129 85.7882H150.429V64.3412H129V85.7882Z" fill="#161616"/>
<path fill-rule="evenodd" clip-rule="evenodd" d="M43.2857 64.3412H64.7143V42.8941H43.2857V64.3412Z" fill="white"/>
</svg>
