<svg width="215" height="237" viewBox="0 0 215 237" fill="none" xmlns="http://www.w3.org/2000/svg">
<path fill-rule="evenodd" clip-rule="evenodd" d="M21.4286 86.2587H42.8571V64.8117H21.4286V86.2587Z" fill="black"/>
<path fill-rule="evenodd" clip-rule="evenodd" d="M42.8572 64.8117H64.2858V43.3646H42.8572V64.8117Z" fill="black"/>
<path fill-rule="evenodd" clip-rule="evenodd" d="M64.2856 43.3646H85.7142V21.9176H64.2856V43.3646Z" fill="black"/>
<path fill-rule="evenodd" clip-rule="evenodd" d="M64.2856 86.2587H85.7142V64.8117H64.2856V86.2587Z" fill="black"/>
<path fill-rule="evenodd" clip-rule="evenodd" d="M85.7144 64.8117H107.143V43.3646H85.7144V64.8117Z" fill="black"/>
<path fill-rule="evenodd" clip-rule="evenodd" d="M107.143 43.3646H128.571V21.9176H107.143V43.3646Z" fill="black"/>
<path fill-rule="evenodd" clip-rule="evenodd" d="M107.143 86.2587H128.571V64.8117H107.143V86.2587Z" fill="black"/>
<path fill-rule="evenodd" clip-rule="evenodd" d="M0 150.6H21.4286V129.153H0V150.6Z" fill="black"/>
<path fill-rule="evenodd" clip-rule="evenodd" d="M0 107.706H21.4286V86.2587H0V107.706Z" fill="black"/>
<path fill-rule="evenodd" clip-rule="evenodd" d="M21.4286 172.047H42.8571V150.6H21.4286V172.047Z" fill="black"/>
<path fill-rule="evenodd" clip-rule="evenodd" d="M21.4286 129.153H42.8571V107.706H21.4286V129.153Z" fill="black"/>
<path fill-rule="evenodd" clip-rule="evenodd" d="M21.4286 214.941H42.8571V193.494H21.4286V214.941Z" fill="black"/>
<path fill-rule="evenodd" clip-rule="evenodd" d="M42.8572 150.6H64.2858V129.153H42.8572V150.6Z" fill="black"/>
<path fill-rule="evenodd" clip-rule="evenodd" d="M42.8572 107.706H64.2858V86.2587H42.8572V107.706Z" fill="black"/>
<path fill-rule="evenodd" clip-rule="evenodd" d="M64.2856 172.047H85.7142V150.6H64.2856V172.047Z" fill="black"/>
<path fill-rule="evenodd" clip-rule="evenodd" d="M64.2856 129.153H85.7142V107.706H64.2856V129.153Z" fill="black"/>
<path fill-rule="evenodd" clip-rule="evenodd" d="M42.8572 193.494V172.047H64.2858L42.8572 193.494Z" fill="black"/>
<path fill-rule="evenodd" clip-rule="evenodd" d="M85.7144 107.706H107.143V86.2587H85.7144V107.706Z" fill="black"/>
<path fill-rule="evenodd" clip-rule="evenodd" d="M192.857 43.3646V21.9176H214.286L192.857 43.3646Z" fill="black"/>
<path fill-rule="evenodd" clip-rule="evenodd" d="M150 129.153V107.706H171.429L150 129.153Z" fill="black"/>
<path fill-rule="evenodd" clip-rule="evenodd" d="M42.8572 86.2587H64.2858V64.8117H42.8572V86.2587Z" fill="#161616"/>
<path fill-rule="evenodd" clip-rule="evenodd" d="M64.2856 64.8117H85.7142V43.3646H64.2856V64.8117Z" fill="#161616"/>
<path fill-rule="evenodd" clip-rule="evenodd" d="M85.7144 43.3646H107.143V21.9176H85.7144V43.3646Z" fill="#161616"/>
<path fill-rule="evenodd" clip-rule="evenodd" d="M85.7144 86.2587H107.143V64.8117H85.7144V86.2587Z" fill="#161616"/>
<path fill-rule="evenodd" clip-rule="evenodd" d="M107.143 21.9176H128.571V0.47052H107.143V21.9176Z" fill="#161616"/>
<path fill-rule="evenodd" clip-rule="evenodd" d="M107.143 64.8117H128.571V43.3646H107.143V64.8117Z" fill="#161616"/>
<path fill-rule="evenodd" clip-rule="evenodd" d="M0 129.153H21.4286V107.706H0V129.153Z" fill="#161616"/>
<path fill-rule="evenodd" clip-rule="evenodd" d="M21.4286 150.6H42.8571V129.153H21.4286V150.6Z" fill="#161616"/>
<path fill-rule="evenodd" clip-rule="evenodd" d="M21.4286 107.706H42.8571V86.2587H21.4286V107.706Z" fill="#161616"/>
<path fill-rule="evenodd" clip-rule="evenodd" d="M21.4286 193.494H42.8571V172.047H21.4286V193.494Z" fill="#161616"/>
<path fill-rule="evenodd" clip-rule="evenodd" d="M42.8572 129.153H64.2858V107.706H42.8572V129.153Z" fill="#161616"/>
<path fill-rule="evenodd" clip-rule="evenodd" d="M42.8572 172.047H64.2858V150.6H42.8572V172.047Z" fill="#161616"/>
<path fill-rule="evenodd" clip-rule="evenodd" d="M64.2856 150.6H85.7142V129.153H64.2856V150.6Z" fill="#161616"/>
<path fill-rule="evenodd" clip-rule="evenodd" d="M64.2856 107.706H85.7142V86.2587H64.2856V107.706Z" fill="#161616"/>
<path fill-rule="evenodd" clip-rule="evenodd" d="M0 150.6H21.4286V172.047L0 150.6Z" fill="#161616"/>
<path fill-rule="evenodd" clip-rule="evenodd" d="M21.4286 214.941H42.8571V236.388L21.4286 214.941Z" fill="#161616"/>
<path fill-rule="evenodd" clip-rule="evenodd" d="M107.143 129.153L85.7144 107.706H107.143V129.153Z" fill="#161616"/>
<path fill-rule="evenodd" clip-rule="evenodd" d="M107.143 107.706V86.2587H128.571L107.143 107.706Z" fill="#161616"/>
<path fill-rule="evenodd" clip-rule="evenodd" d="M192.857 21.9176H214.286V0.47052H192.857V21.9176Z" fill="#161616"/>
<path fill-rule="evenodd" clip-rule="evenodd" d="M150 107.706H171.429V86.2587H150V107.706Z" fill="#161616"/>
</svg>
