<svg width="365" height="409" viewBox="0 0 365 409" fill="none" xmlns="http://www.w3.org/2000/svg">
<path fill-rule="evenodd" clip-rule="evenodd" d="M257.143 65.2353H278.571V43.7882H257.143V65.2353Z" fill="black"/>
<path fill-rule="evenodd" clip-rule="evenodd" d="M214.286 65.2353H235.714V43.7882H214.286V65.2353Z" fill="black"/>
<path fill-rule="evenodd" clip-rule="evenodd" d="M171.429 65.2353H192.857V43.7882H171.429V65.2353Z" fill="black"/>
<path fill-rule="evenodd" clip-rule="evenodd" d="M235.714 86.6823H257.143V65.2353H235.714V86.6823Z" fill="black"/>
<path fill-rule="evenodd" clip-rule="evenodd" d="M192.857 86.6823H214.286V65.2353H192.857V86.6823Z" fill="black"/>
<path fill-rule="evenodd" clip-rule="evenodd" d="M150 86.6823H171.429V65.2353H150V86.6823Z" fill="black"/>
<path fill-rule="evenodd" clip-rule="evenodd" d="M278.571 86.6823H300V65.2353H278.571V86.6823Z" fill="black"/>
<path fill-rule="evenodd" clip-rule="evenodd" d="M257.143 22.3412H278.571V0.894104H257.143V22.3412Z" fill="black"/>
<path fill-rule="evenodd" clip-rule="evenodd" d="M235.714 43.7882H257.143V22.3412H235.714V43.7882Z" fill="black"/>
<path fill-rule="evenodd" clip-rule="evenodd" d="M278.571 43.7882H300V22.3412H278.571V43.7882Z" fill="black"/>
<path fill-rule="evenodd" clip-rule="evenodd" d="M214.286 151.023H235.714V129.576H214.286V151.023Z" fill="black"/>
<path fill-rule="evenodd" clip-rule="evenodd" d="M171.429 151.023H192.857V129.576H171.429V151.023Z" fill="black"/>
<path fill-rule="evenodd" clip-rule="evenodd" d="M128.571 151.023H150V129.576H128.571V151.023Z" fill="black"/>
<path fill-rule="evenodd" clip-rule="evenodd" d="M235.714 172.471H257.143V151.023H235.714V172.471Z" fill="black"/>
<path fill-rule="evenodd" clip-rule="evenodd" d="M192.857 172.471H214.286V151.023H192.857V172.471Z" fill="black"/>
<path fill-rule="evenodd" clip-rule="evenodd" d="M150 172.471H171.429V151.023H150V172.471Z" fill="black"/>
<path fill-rule="evenodd" clip-rule="evenodd" d="M107.143 172.471H128.571V151.023H107.143V172.471Z" fill="black"/>
<path fill-rule="evenodd" clip-rule="evenodd" d="M278.571 172.471H300V151.023H278.571V172.471Z" fill="black"/>
<path fill-rule="evenodd" clip-rule="evenodd" d="M85.7143 151.023H107.143V129.576H85.7143V151.023Z" fill="black"/>
<path fill-rule="evenodd" clip-rule="evenodd" d="M42.8571 151.023H64.2857V129.576H42.8571V151.023Z" fill="black"/>
<path fill-rule="evenodd" clip-rule="evenodd" d="M64.2857 172.471H85.7143V151.023H64.2857V172.471Z" fill="black"/>
<path fill-rule="evenodd" clip-rule="evenodd" d="M257.143 108.129H278.571V86.6823H257.143V108.129Z" fill="black"/>
<path fill-rule="evenodd" clip-rule="evenodd" d="M214.286 108.129H235.714V86.6823H214.286V108.129Z" fill="black"/>
<path fill-rule="evenodd" clip-rule="evenodd" d="M171.429 108.129H192.857V86.6823H171.429V108.129Z" fill="black"/>
<path fill-rule="evenodd" clip-rule="evenodd" d="M235.714 129.576H257.143V108.129H235.714V129.576Z" fill="black"/>
<path fill-rule="evenodd" clip-rule="evenodd" d="M192.857 129.576H214.286V108.129H192.857V129.576Z" fill="black"/>
<path fill-rule="evenodd" clip-rule="evenodd" d="M150 129.576H171.429V108.129H150V129.576Z" fill="black"/>
<path fill-rule="evenodd" clip-rule="evenodd" d="M107.143 129.576H128.571V108.129H107.143V129.576Z" fill="black"/>
<path fill-rule="evenodd" clip-rule="evenodd" d="M300 129.576H278.571V108.129L300 129.576Z" fill="black"/>
<path fill-rule="evenodd" clip-rule="evenodd" d="M85.7143 108.129H107.143V86.6823H85.7143V108.129Z" fill="black"/>
<path fill-rule="evenodd" clip-rule="evenodd" d="M42.8571 108.129H64.2857V86.6823H42.8571V108.129Z" fill="black"/>
<path fill-rule="evenodd" clip-rule="evenodd" d="M64.2857 129.576H85.7143V108.129H64.2857V129.576Z" fill="black"/>
<path fill-rule="evenodd" clip-rule="evenodd" d="M257.143 236.812H278.571V215.365H257.143V236.812Z" fill="black"/>
<path fill-rule="evenodd" clip-rule="evenodd" d="M214.286 236.812H235.714V215.365H214.286V236.812Z" fill="black"/>
<path fill-rule="evenodd" clip-rule="evenodd" d="M171.429 236.812H192.857V215.365H171.429V236.812Z" fill="black"/>
<path fill-rule="evenodd" clip-rule="evenodd" d="M128.571 236.812H150V215.365H128.571V236.812Z" fill="black"/>
<path fill-rule="evenodd" clip-rule="evenodd" d="M235.714 258.259H257.143V236.812H235.714V258.259Z" fill="black"/>
<path fill-rule="evenodd" clip-rule="evenodd" d="M192.857 258.259H214.286V236.812H192.857V258.259Z" fill="black"/>
<path fill-rule="evenodd" clip-rule="evenodd" d="M150 258.259H171.429V236.812H150V258.259Z" fill="black"/>
<path fill-rule="evenodd" clip-rule="evenodd" d="M278.571 258.259H300V236.812H278.571V258.259Z" fill="black"/>
<path fill-rule="evenodd" clip-rule="evenodd" d="M214.286 193.918H235.714V172.471H214.286V193.918Z" fill="black"/>
<path fill-rule="evenodd" clip-rule="evenodd" d="M171.429 193.918H192.857V172.471H171.429V193.918Z" fill="black"/>
<path fill-rule="evenodd" clip-rule="evenodd" d="M128.571 193.918H150V172.471H128.571V193.918Z" fill="black"/>
<path fill-rule="evenodd" clip-rule="evenodd" d="M257.143 215.365H235.714V193.918L257.143 215.365Z" fill="black"/>
<path fill-rule="evenodd" clip-rule="evenodd" d="M192.857 215.365H214.286V193.918H192.857V215.365Z" fill="black"/>
<path fill-rule="evenodd" clip-rule="evenodd" d="M150 215.365H171.429V193.918H150V215.365Z" fill="black"/>
<path fill-rule="evenodd" clip-rule="evenodd" d="M107.143 215.365H128.571V193.918H107.143V215.365Z" fill="black"/>
<path fill-rule="evenodd" clip-rule="evenodd" d="M278.571 215.365H300V193.918H278.571V215.365Z" fill="black"/>
<path fill-rule="evenodd" clip-rule="evenodd" d="M278.571 322.6L257.143 301.153H278.571V322.6Z" fill="black"/>
<path fill-rule="evenodd" clip-rule="evenodd" d="M214.286 322.6H235.714V301.153H214.286V322.6Z" fill="black"/>
<path fill-rule="evenodd" clip-rule="evenodd" d="M171.429 322.6H192.857V301.153H171.429V322.6Z" fill="black"/>
<path fill-rule="evenodd" clip-rule="evenodd" d="M257.143 365.494H278.571V344.047H257.143V365.494Z" fill="black"/>
<path fill-rule="evenodd" clip-rule="evenodd" d="M278.571 344.047H300V322.6H278.571V344.047Z" fill="black"/>
<path fill-rule="evenodd" clip-rule="evenodd" d="M257.143 279.706H278.571V258.259H257.143V279.706Z" fill="black"/>
<path fill-rule="evenodd" clip-rule="evenodd" d="M214.286 279.706H235.714V258.259H214.286V279.706Z" fill="black"/>
<path fill-rule="evenodd" clip-rule="evenodd" d="M235.714 301.153H257.143V279.706H235.714V301.153Z" fill="black"/>
<path fill-rule="evenodd" clip-rule="evenodd" d="M192.857 301.153H214.286V279.706H192.857V301.153Z" fill="black"/>
<path fill-rule="evenodd" clip-rule="evenodd" d="M150 301.153H171.429V279.706H150V301.153Z" fill="black"/>
<path fill-rule="evenodd" clip-rule="evenodd" d="M278.571 301.153H300V279.706H278.571V301.153Z" fill="black"/>
<path fill-rule="evenodd" clip-rule="evenodd" d="M300 151.023H321.429V129.576H300V151.023Z" fill="black"/>
<path fill-rule="evenodd" clip-rule="evenodd" d="M321.429 172.471H342.857V151.023H321.429V172.471Z" fill="black"/>
<path fill-rule="evenodd" clip-rule="evenodd" d="M300 236.812H321.429V215.365H300V236.812Z" fill="black"/>
<path fill-rule="evenodd" clip-rule="evenodd" d="M321.429 258.259H342.857V236.812H321.429V258.259Z" fill="black"/>
<path fill-rule="evenodd" clip-rule="evenodd" d="M342.857 193.918H364.286V172.471H342.857V193.918Z" fill="black"/>
<path fill-rule="evenodd" clip-rule="evenodd" d="M300 193.918H321.429V172.471H300V193.918Z" fill="black"/>
<path fill-rule="evenodd" clip-rule="evenodd" d="M321.429 215.365H342.857V193.918H321.429V215.365Z" fill="black"/>
<path fill-rule="evenodd" clip-rule="evenodd" d="M192.857 344.047H214.286V322.6H192.857V344.047Z" fill="black"/>
<path fill-rule="evenodd" clip-rule="evenodd" d="M171.429 279.706H192.857V258.259H171.429V279.706Z" fill="black"/>
<path fill-rule="evenodd" clip-rule="evenodd" d="M85.7143 193.918H107.143V172.471H85.7143V193.918Z" fill="black"/>
<path fill-rule="evenodd" clip-rule="evenodd" d="M21.4286 172.471H42.8572V151.023H21.4286V172.471Z" fill="black"/>
<path fill-rule="evenodd" clip-rule="evenodd" d="M21.4286 129.576H42.8572V108.129H21.4286V129.576Z" fill="black"/>
<path fill-rule="evenodd" clip-rule="evenodd" d="M128.571 108.129H150V86.6823H128.571V108.129Z" fill="black"/>
<path fill-rule="evenodd" clip-rule="evenodd" d="M214.286 365.494H235.714V344.047H214.286V365.494Z" fill="black"/>
<path fill-rule="evenodd" clip-rule="evenodd" d="M257.143 386.941L235.714 365.494H257.143V386.941Z" fill="black"/>
<path fill-rule="evenodd" clip-rule="evenodd" d="M278.571 65.2353H300V43.7882H278.571V65.2353Z" fill="#161616"/>
<path fill-rule="evenodd" clip-rule="evenodd" d="M235.714 65.2353H257.143V43.7882H235.714V65.2353Z" fill="#161616"/>
<path fill-rule="evenodd" clip-rule="evenodd" d="M192.857 65.2353H214.286V43.7882H192.857V65.2353Z" fill="#161616"/>
<path fill-rule="evenodd" clip-rule="evenodd" d="M150 65.2353H171.429V43.7882H150V65.2353Z" fill="#161616"/>
<path fill-rule="evenodd" clip-rule="evenodd" d="M257.143 86.6823H278.571V65.2353H257.143V86.6823Z" fill="#161616"/>
<path fill-rule="evenodd" clip-rule="evenodd" d="M214.286 86.6823H235.714V65.2353H214.286V86.6823Z" fill="#161616"/>
<path fill-rule="evenodd" clip-rule="evenodd" d="M171.429 86.6823H192.857V65.2353H171.429V86.6823Z" fill="#161616"/>
<path fill-rule="evenodd" clip-rule="evenodd" d="M278.571 22.3412H300V0.894104H278.571V22.3412Z" fill="#161616"/>
<path fill-rule="evenodd" clip-rule="evenodd" d="M257.143 43.7882H278.571V22.3412H257.143V43.7882Z" fill="#161616"/>
<path fill-rule="evenodd" clip-rule="evenodd" d="M278.571 151.023H300V129.576H278.571V151.023Z" fill="#161616"/>
<path fill-rule="evenodd" clip-rule="evenodd" d="M235.714 151.023H257.143V129.576H235.714V151.023Z" fill="#161616"/>
<path fill-rule="evenodd" clip-rule="evenodd" d="M192.857 151.023H214.286V129.576H192.857V151.023Z" fill="#161616"/>
<path fill-rule="evenodd" clip-rule="evenodd" d="M150 151.023H171.429V129.576H150V151.023Z" fill="#161616"/>
<path fill-rule="evenodd" clip-rule="evenodd" d="M214.286 172.471H235.714V151.023H214.286V172.471Z" fill="#161616"/>
<path fill-rule="evenodd" clip-rule="evenodd" d="M171.429 172.471H192.857V151.023H171.429V172.471Z" fill="#161616"/>
<path fill-rule="evenodd" clip-rule="evenodd" d="M128.571 172.471H150V151.023H128.571V172.471Z" fill="#161616"/>
<path fill-rule="evenodd" clip-rule="evenodd" d="M107.143 151.023H128.571V129.576H107.143V151.023Z" fill="#161616"/>
<path fill-rule="evenodd" clip-rule="evenodd" d="M64.2857 151.023H85.7143V129.576H64.2857V151.023Z" fill="#161616"/>
<path fill-rule="evenodd" clip-rule="evenodd" d="M85.7143 172.471H107.143V151.023H85.7143V172.471Z" fill="#161616"/>
<path fill-rule="evenodd" clip-rule="evenodd" d="M42.8571 172.471H64.2857V151.023H42.8571V172.471Z" fill="#161616"/>
<path fill-rule="evenodd" clip-rule="evenodd" d="M235.714 108.129H257.143V86.6823H235.714V108.129Z" fill="#161616"/>
<path fill-rule="evenodd" clip-rule="evenodd" d="M192.857 108.129H214.286V86.6823H192.857V108.129Z" fill="#161616"/>
<path fill-rule="evenodd" clip-rule="evenodd" d="M150 108.129H171.429V86.6823H150V108.129Z" fill="#161616"/>
<path fill-rule="evenodd" clip-rule="evenodd" d="M257.143 129.576H278.571V108.129H257.143V129.576Z" fill="#161616"/>
<path fill-rule="evenodd" clip-rule="evenodd" d="M214.286 129.576H235.714V108.129H214.286V129.576Z" fill="#161616"/>
<path fill-rule="evenodd" clip-rule="evenodd" d="M171.429 129.576H192.857V108.129H171.429V129.576Z" fill="#161616"/>
<path fill-rule="evenodd" clip-rule="evenodd" d="M128.571 129.576H150V108.129H128.571V129.576Z" fill="#161616"/>
<path fill-rule="evenodd" clip-rule="evenodd" d="M64.2857 108.129H85.7143V86.6823H64.2857V108.129Z" fill="#161616"/>
<path fill-rule="evenodd" clip-rule="evenodd" d="M85.7143 129.576H107.143V108.129H85.7143V129.576Z" fill="#161616"/>
<path fill-rule="evenodd" clip-rule="evenodd" d="M42.8571 129.576H64.2857V108.129H42.8571V129.576Z" fill="#161616"/>
<path fill-rule="evenodd" clip-rule="evenodd" d="M278.571 236.812H300V215.365H278.571V236.812Z" fill="#161616"/>
<path fill-rule="evenodd" clip-rule="evenodd" d="M235.714 236.812H257.143V215.365H235.714V236.812Z" fill="#161616"/>
<path fill-rule="evenodd" clip-rule="evenodd" d="M192.857 236.812H214.286V215.365H192.857V236.812Z" fill="#161616"/>
<path fill-rule="evenodd" clip-rule="evenodd" d="M257.143 258.259H278.571V236.812H257.143V258.259Z" fill="#161616"/>
<path fill-rule="evenodd" clip-rule="evenodd" d="M214.286 258.259H235.714V236.812H214.286V258.259Z" fill="#161616"/>
<path fill-rule="evenodd" clip-rule="evenodd" d="M150 258.259L128.571 236.812H150V258.259Z" fill="#161616"/>
<path fill-rule="evenodd" clip-rule="evenodd" d="M278.571 193.918H300V172.471H278.571V193.918Z" fill="#161616"/>
<path fill-rule="evenodd" clip-rule="evenodd" d="M235.714 193.918V172.471H257.143L235.714 193.918Z" fill="#161616"/>
<path fill-rule="evenodd" clip-rule="evenodd" d="M192.857 193.918H214.286V172.471H192.857V193.918Z" fill="#161616"/>
<path fill-rule="evenodd" clip-rule="evenodd" d="M150 193.918H171.429V172.471H150V193.918Z" fill="#161616"/>
<path fill-rule="evenodd" clip-rule="evenodd" d="M214.286 215.365H235.714V193.918H214.286V215.365Z" fill="#161616"/>
<path fill-rule="evenodd" clip-rule="evenodd" d="M171.429 215.365H192.857V193.918H171.429V215.365Z" fill="#161616"/>
<path fill-rule="evenodd" clip-rule="evenodd" d="M85.7143 215.365H107.143V193.918H85.7143V215.365Z" fill="#161616"/>
<path fill-rule="evenodd" clip-rule="evenodd" d="M107.143 193.918H128.571V172.471H107.143V193.918Z" fill="#161616"/>
<path fill-rule="evenodd" clip-rule="evenodd" d="M85.7143 193.918L64.2857 172.471H85.7143V193.918Z" fill="#161616"/>
<path fill-rule="evenodd" clip-rule="evenodd" d="M278.571 322.6H300V301.153H278.571V322.6Z" fill="#161616"/>
<path fill-rule="evenodd" clip-rule="evenodd" d="M235.714 322.6H257.143V301.153H235.714V322.6Z" fill="#161616"/>
<path fill-rule="evenodd" clip-rule="evenodd" d="M171.429 322.6L150 301.153H171.429V322.6Z" fill="#161616"/>
<path fill-rule="evenodd" clip-rule="evenodd" d="M214.286 344.047H235.714V322.6H214.286V344.047Z" fill="#161616"/>
<path fill-rule="evenodd" clip-rule="evenodd" d="M192.857 344.047L171.429 322.6H192.857V344.047Z" fill="#161616"/>
<path fill-rule="evenodd" clip-rule="evenodd" d="M278.571 279.706H300V258.259H278.571V279.706Z" fill="#161616"/>
<path fill-rule="evenodd" clip-rule="evenodd" d="M235.714 279.706H257.143V258.259H235.714V279.706Z" fill="#161616"/>
<path fill-rule="evenodd" clip-rule="evenodd" d="M150 279.706H171.429V258.259H150V279.706Z" fill="#161616"/>
<path fill-rule="evenodd" clip-rule="evenodd" d="M192.857 279.706H214.286V258.259H192.857V279.706Z" fill="#161616"/>
<path fill-rule="evenodd" clip-rule="evenodd" d="M257.143 301.153H278.571V279.706H257.143V301.153Z" fill="#161616"/>
<path fill-rule="evenodd" clip-rule="evenodd" d="M214.286 301.153H235.714V279.706H214.286V301.153Z" fill="#161616"/>
<path fill-rule="evenodd" clip-rule="evenodd" d="M342.857 151.023H321.429V129.576L342.857 151.023Z" fill="#161616"/>
<path fill-rule="evenodd" clip-rule="evenodd" d="M300 172.471H321.429V151.023H300V172.471Z" fill="#161616"/>
<path fill-rule="evenodd" clip-rule="evenodd" d="M321.429 236.812H342.857V215.365H321.429V236.812Z" fill="#161616"/>
<path fill-rule="evenodd" clip-rule="evenodd" d="M300 258.259H321.429V236.812H300V258.259Z" fill="#161616"/>
<path fill-rule="evenodd" clip-rule="evenodd" d="M321.429 193.918H342.857V172.471H321.429V193.918Z" fill="#161616"/>
<path fill-rule="evenodd" clip-rule="evenodd" d="M300 215.365H321.429V193.918H300V215.365Z" fill="#161616"/>
<path fill-rule="evenodd" clip-rule="evenodd" d="M300 344.047H321.429V322.6H300V344.047Z" fill="#161616"/>
<path fill-rule="evenodd" clip-rule="evenodd" d="M21.4286 151.023H42.8572V129.576H21.4286V151.023Z" fill="#161616"/>
<path fill-rule="evenodd" clip-rule="evenodd" d="M192.857 322.6H214.286V301.153H192.857V322.6Z" fill="#161616"/>
<path fill-rule="evenodd" clip-rule="evenodd" d="M171.429 258.259H192.857V236.812H171.429V258.259Z" fill="#161616"/>
<path fill-rule="evenodd" clip-rule="evenodd" d="M171.429 301.153H192.857V279.706H171.429V301.153Z" fill="#161616"/>
<path fill-rule="evenodd" clip-rule="evenodd" d="M150 236.812H171.429V215.365H150V236.812Z" fill="#161616"/>
<path fill-rule="evenodd" clip-rule="evenodd" d="M128.571 215.365H150V193.918H128.571V215.365Z" fill="#161616"/>
<path fill-rule="evenodd" clip-rule="evenodd" d="M21.4286 193.918V172.471H42.8572L21.4286 193.918Z" fill="#161616"/>
<path fill-rule="evenodd" clip-rule="evenodd" d="M21.4286 108.129H42.8572V86.6823H21.4286V108.129Z" fill="#161616"/>
<path fill-rule="evenodd" clip-rule="evenodd" d="M150 65.2353V86.6823H128.571L150 65.2353Z" fill="#161616"/>
<path fill-rule="evenodd" clip-rule="evenodd" d="M107.143 108.129H128.571V86.6823H107.143V108.129Z" fill="#161616"/>
<path fill-rule="evenodd" clip-rule="evenodd" d="M257.143 0.894104V22.3412H235.714L257.143 0.894104Z" fill="#161616"/>
<path fill-rule="evenodd" clip-rule="evenodd" d="M235.714 22.3412V43.7882H214.286L235.714 22.3412Z" fill="#161616"/>
<path fill-rule="evenodd" clip-rule="evenodd" d="M0 129.576H21.4286V108.129L0 129.576Z" fill="#161616"/>
<path fill-rule="evenodd" clip-rule="evenodd" d="M214.286 365.494L192.857 344.047H214.286V365.494Z" fill="#161616"/>
<path fill-rule="evenodd" clip-rule="evenodd" d="M235.714 365.494H257.143V344.047H235.714V365.494Z" fill="#161616"/>
<path fill-rule="evenodd" clip-rule="evenodd" d="M278.571 408.388L257.143 386.941H278.571V408.388Z" fill="#161616"/>
</svg>
