<svg width="408" height="366" viewBox="0 0 408 366" fill="none" xmlns="http://www.w3.org/2000/svg">
<path fill-rule="evenodd" clip-rule="evenodd" d="M85.7143 365.494L64.2857 344.047H85.7143V365.494Z" fill="black"/>
<path fill-rule="evenodd" clip-rule="evenodd" d="M42.8571 344.047H64.2857V322.6H42.8571V344.047Z" fill="black"/>
<path fill-rule="evenodd" clip-rule="evenodd" d="M85.7143 344.047H107.143V322.6H85.7143V344.047Z" fill="black"/>
<path fill-rule="evenodd" clip-rule="evenodd" d="M21.4286 193.918H42.8571V172.471H21.4286V193.918Z" fill="black"/>
<path fill-rule="evenodd" clip-rule="evenodd" d="M21.4286 151.023H42.8571V129.576H21.4286V151.023Z" fill="black"/>
<path fill-rule="evenodd" clip-rule="evenodd" d="M21.4286 236.812H42.8571V215.365H21.4286V236.812Z" fill="black"/>
<path fill-rule="evenodd" clip-rule="evenodd" d="M42.8571 215.365H64.2857V193.918H42.8571V215.365Z" fill="black"/>
<path fill-rule="evenodd" clip-rule="evenodd" d="M42.8571 172.471H64.2857V151.023H42.8571V172.471Z" fill="black"/>
<path fill-rule="evenodd" clip-rule="evenodd" d="M42.8571 258.259H64.2857V236.812H42.8571V258.259Z" fill="black"/>
<path fill-rule="evenodd" clip-rule="evenodd" d="M64.2857 193.918H85.7143V172.471H64.2857V193.918Z" fill="black"/>
<path fill-rule="evenodd" clip-rule="evenodd" d="M64.2857 151.023H85.7143V129.576H64.2857V151.023Z" fill="black"/>
<path fill-rule="evenodd" clip-rule="evenodd" d="M64.2857 236.812H85.7143V215.365H64.2857V236.812Z" fill="black"/>
<path fill-rule="evenodd" clip-rule="evenodd" d="M85.7143 215.365H107.143V193.918H85.7143V215.365Z" fill="black"/>
<path fill-rule="evenodd" clip-rule="evenodd" d="M85.7143 172.471H107.143V151.023H85.7143V172.471Z" fill="black"/>
<path fill-rule="evenodd" clip-rule="evenodd" d="M85.7143 258.259H107.143V236.812H85.7143V258.259Z" fill="black"/>
<path fill-rule="evenodd" clip-rule="evenodd" d="M107.143 193.918H128.571V172.471H107.143V193.918Z" fill="black"/>
<path fill-rule="evenodd" clip-rule="evenodd" d="M107.143 151.023H128.571V129.576H107.143V151.023Z" fill="black"/>
<path fill-rule="evenodd" clip-rule="evenodd" d="M107.143 236.812H128.571V215.365H107.143V236.812Z" fill="black"/>
<path fill-rule="evenodd" clip-rule="evenodd" d="M128.571 215.365H150V193.918H128.571V215.365Z" fill="black"/>
<path fill-rule="evenodd" clip-rule="evenodd" d="M128.571 172.471H150V151.023H128.571V172.471Z" fill="black"/>
<path fill-rule="evenodd" clip-rule="evenodd" d="M128.571 258.259H150V236.812H128.571V258.259Z" fill="black"/>
<path fill-rule="evenodd" clip-rule="evenodd" d="M150 193.918H171.429V172.471H150V193.918Z" fill="black"/>
<path fill-rule="evenodd" clip-rule="evenodd" d="M150 151.023H171.429V129.576H150V151.023Z" fill="black"/>
<path fill-rule="evenodd" clip-rule="evenodd" d="M150 236.812H171.429V215.365H150V236.812Z" fill="black"/>
<path fill-rule="evenodd" clip-rule="evenodd" d="M42.8571 301.153H64.2857V279.706H42.8571V301.153Z" fill="black"/>
<path fill-rule="evenodd" clip-rule="evenodd" d="M85.7143 301.153H107.143V279.706H85.7143V301.153Z" fill="black"/>
<path fill-rule="evenodd" clip-rule="evenodd" d="M21.4286 279.706H42.8571V258.259H21.4286V279.706Z" fill="black"/>
<path fill-rule="evenodd" clip-rule="evenodd" d="M64.2857 279.706H85.7143V258.259H64.2857V279.706Z" fill="black"/>
<path fill-rule="evenodd" clip-rule="evenodd" d="M107.143 279.706H128.571V258.259H107.143V279.706Z" fill="black"/>
<path fill-rule="evenodd" clip-rule="evenodd" d="M21.4286 322.6H42.8571V301.153H21.4286V322.6Z" fill="black"/>
<path fill-rule="evenodd" clip-rule="evenodd" d="M64.2857 322.6H85.7143V301.153H64.2857V322.6Z" fill="black"/>
<path fill-rule="evenodd" clip-rule="evenodd" d="M107.143 322.6H128.571V301.153H107.143V322.6Z" fill="black"/>
<path fill-rule="evenodd" clip-rule="evenodd" d="M171.429 215.365H192.857V193.918H171.429V215.365Z" fill="black"/>
<path fill-rule="evenodd" clip-rule="evenodd" d="M171.429 172.471H192.857V151.023H171.429V172.471Z" fill="black"/>
<path fill-rule="evenodd" clip-rule="evenodd" d="M192.857 193.918H214.286V172.471H192.857V193.918Z" fill="black"/>
<path fill-rule="evenodd" clip-rule="evenodd" d="M192.857 151.023H214.286V129.576H192.857V151.023Z" fill="black"/>
<path fill-rule="evenodd" clip-rule="evenodd" d="M214.286 172.471H235.714V151.023H214.286V172.471Z" fill="black"/>
<path fill-rule="evenodd" clip-rule="evenodd" d="M235.714 193.918H257.143V172.471H235.714V193.918Z" fill="black"/>
<path fill-rule="evenodd" clip-rule="evenodd" d="M235.714 151.023H257.143V129.576H235.714V151.023Z" fill="black"/>
<path fill-rule="evenodd" clip-rule="evenodd" d="M257.143 172.471H278.571V151.023H257.143V172.471Z" fill="black"/>
<path fill-rule="evenodd" clip-rule="evenodd" d="M128.571 301.153H150V279.706H128.571V301.153Z" fill="black"/>
<path fill-rule="evenodd" clip-rule="evenodd" d="M64.2857 108.129H85.7143V86.6823H64.2857V108.129Z" fill="black"/>
<path fill-rule="evenodd" clip-rule="evenodd" d="M85.7143 129.576H107.143V108.129H85.7143V129.576Z" fill="black"/>
<path fill-rule="evenodd" clip-rule="evenodd" d="M85.7143 86.6823H107.143V65.2353H85.7143V86.6823Z" fill="black"/>
<path fill-rule="evenodd" clip-rule="evenodd" d="M107.143 108.129H128.571V86.6823H107.143V108.129Z" fill="black"/>
<path fill-rule="evenodd" clip-rule="evenodd" d="M128.571 65.2353H107.143L128.571 43.7882V65.2353Z" fill="black"/>
<path fill-rule="evenodd" clip-rule="evenodd" d="M128.571 129.576H150V108.129H128.571V129.576Z" fill="black"/>
<path fill-rule="evenodd" clip-rule="evenodd" d="M128.571 86.6823H150V65.2353H128.571V86.6823Z" fill="black"/>
<path fill-rule="evenodd" clip-rule="evenodd" d="M150 108.129H171.429V86.6823H150V108.129Z" fill="black"/>
<path fill-rule="evenodd" clip-rule="evenodd" d="M150 65.2353H171.429V43.7882H150V65.2353Z" fill="black"/>
<path fill-rule="evenodd" clip-rule="evenodd" d="M171.429 129.576H192.857V108.129H171.429V129.576Z" fill="black"/>
<path fill-rule="evenodd" clip-rule="evenodd" d="M171.429 86.6823H192.857V65.2353H171.429V86.6823Z" fill="black"/>
<path fill-rule="evenodd" clip-rule="evenodd" d="M192.857 108.129H214.286V86.6823H192.857V108.129Z" fill="black"/>
<path fill-rule="evenodd" clip-rule="evenodd" d="M214.286 129.576H235.714V108.129H214.286V129.576Z" fill="black"/>
<path fill-rule="evenodd" clip-rule="evenodd" d="M214.286 86.6823H235.714V65.2353H214.286V86.6823Z" fill="black"/>
<path fill-rule="evenodd" clip-rule="evenodd" d="M235.714 108.129H257.143V86.6823H235.714V108.129Z" fill="black"/>
<path fill-rule="evenodd" clip-rule="evenodd" d="M150 22.3412H171.429V0.894104H150V22.3412Z" fill="black"/>
<path fill-rule="evenodd" clip-rule="evenodd" d="M171.429 43.7882H192.857V22.3412H171.429V43.7882Z" fill="black"/>
<path fill-rule="evenodd" clip-rule="evenodd" d="M150 43.7882H128.571L150 22.3412V43.7882Z" fill="black"/>
<path fill-rule="evenodd" clip-rule="evenodd" d="M214.286 65.2353H192.857V43.7882L214.286 65.2353Z" fill="black"/>
<path fill-rule="evenodd" clip-rule="evenodd" d="M42.8571 129.576H64.2857V108.129H42.8571V129.576Z" fill="black"/>
<path fill-rule="evenodd" clip-rule="evenodd" d="M257.143 129.576H278.571V108.129H257.143V129.576Z" fill="black"/>
<path fill-rule="evenodd" clip-rule="evenodd" d="M278.571 108.129H300V86.6823H278.571V108.129Z" fill="black"/>
<path fill-rule="evenodd" clip-rule="evenodd" d="M300 129.576H321.429V108.129H300V129.576Z" fill="black"/>
<path fill-rule="evenodd" clip-rule="evenodd" d="M321.429 108.129H342.857V86.6823H321.429V108.129Z" fill="black"/>
<path fill-rule="evenodd" clip-rule="evenodd" d="M342.857 129.576H364.286V108.129H342.857V129.576Z" fill="black"/>
<path fill-rule="evenodd" clip-rule="evenodd" d="M300 86.6823H321.429V65.2353H300V86.6823Z" fill="black"/>
<path fill-rule="evenodd" clip-rule="evenodd" d="M278.571 151.023H300V129.576H278.571V151.023Z" fill="black"/>
<path fill-rule="evenodd" clip-rule="evenodd" d="M321.429 151.023H342.857V129.576H321.429V151.023Z" fill="black"/>
<path fill-rule="evenodd" clip-rule="evenodd" d="M385.714 129.576H407.143V108.129H385.714V129.576Z" fill="black"/>
<path fill-rule="evenodd" clip-rule="evenodd" d="M364.286 151.023H385.714V129.576H364.286V151.023Z" fill="black"/>
<path fill-rule="evenodd" clip-rule="evenodd" d="M300 172.471H321.429V151.023H300V172.471Z" fill="black"/>
<path fill-rule="evenodd" clip-rule="evenodd" d="M85.7143 365.494V344.047H107.143L85.7143 365.494Z" fill="#161616"/>
<path fill-rule="evenodd" clip-rule="evenodd" d="M64.2857 344.047H85.7143V322.6H64.2857V344.047Z" fill="#161616"/>
<path fill-rule="evenodd" clip-rule="evenodd" d="M21.4286 344.047H42.8571V322.6H21.4286V344.047Z" fill="#161616"/>
<path fill-rule="evenodd" clip-rule="evenodd" d="M107.143 344.047H128.571V322.6H107.143V344.047Z" fill="#161616"/>
<path fill-rule="evenodd" clip-rule="evenodd" d="M107.143 344.047H128.571V322.6H107.143V344.047Z" fill="#161616"/>
<path fill-rule="evenodd" clip-rule="evenodd" d="M21.4286 172.471H42.8571V151.023H21.4286V172.471Z" fill="#161616"/>
<path fill-rule="evenodd" clip-rule="evenodd" d="M21.4286 215.365H42.8571V193.918H21.4286V215.365Z" fill="#161616"/>
<path fill-rule="evenodd" clip-rule="evenodd" d="M21.4286 258.259H42.8571V236.812H21.4286V258.259Z" fill="#161616"/>
<path fill-rule="evenodd" clip-rule="evenodd" d="M42.8571 193.918H64.2857V172.471H42.8571V193.918Z" fill="#161616"/>
<path fill-rule="evenodd" clip-rule="evenodd" d="M42.8571 151.023H64.2857V129.576H42.8571V151.023Z" fill="#161616"/>
<path fill-rule="evenodd" clip-rule="evenodd" d="M42.8571 236.812H64.2857V215.365H42.8571V236.812Z" fill="#161616"/>
<path fill-rule="evenodd" clip-rule="evenodd" d="M64.2857 172.471H85.7143V151.023H64.2857V172.471Z" fill="#161616"/>
<path fill-rule="evenodd" clip-rule="evenodd" d="M64.2857 215.365H85.7143V193.918H64.2857V215.365Z" fill="#161616"/>
<path fill-rule="evenodd" clip-rule="evenodd" d="M64.2857 258.259H85.7143V236.812H64.2857V258.259Z" fill="#161616"/>
<path fill-rule="evenodd" clip-rule="evenodd" d="M85.7143 193.918H107.143V172.471H85.7143V193.918Z" fill="#161616"/>
<path fill-rule="evenodd" clip-rule="evenodd" d="M85.7143 151.023H107.143V129.576H85.7143V151.023Z" fill="#161616"/>
<path fill-rule="evenodd" clip-rule="evenodd" d="M85.7143 236.812H107.143V215.365H85.7143V236.812Z" fill="#161616"/>
<path fill-rule="evenodd" clip-rule="evenodd" d="M107.143 172.471H128.571V151.023H107.143V172.471Z" fill="#161616"/>
<path fill-rule="evenodd" clip-rule="evenodd" d="M107.143 215.365H128.571V193.918H107.143V215.365Z" fill="#161616"/>
<path fill-rule="evenodd" clip-rule="evenodd" d="M107.143 258.259H128.571V236.812H107.143V258.259Z" fill="#161616"/>
<path fill-rule="evenodd" clip-rule="evenodd" d="M128.571 193.918H150V172.471H128.571V193.918Z" fill="#161616"/>
<path fill-rule="evenodd" clip-rule="evenodd" d="M128.571 151.023H150V129.576H128.571V151.023Z" fill="#161616"/>
<path fill-rule="evenodd" clip-rule="evenodd" d="M128.571 236.812H150V215.365H128.571V236.812Z" fill="#161616"/>
<path fill-rule="evenodd" clip-rule="evenodd" d="M150 172.471H171.429V151.023H150V172.471Z" fill="#161616"/>
<path fill-rule="evenodd" clip-rule="evenodd" d="M150 215.365H171.429V193.918H150V215.365Z" fill="#161616"/>
<path fill-rule="evenodd" clip-rule="evenodd" d="M150 258.259H171.429V236.812H150V258.259Z" fill="#161616"/>
<path fill-rule="evenodd" clip-rule="evenodd" d="M21.4286 301.153H42.8571V279.706H21.4286V301.153Z" fill="#161616"/>
<path fill-rule="evenodd" clip-rule="evenodd" d="M64.2857 301.153H85.7143V279.706H64.2857V301.153Z" fill="#161616"/>
<path fill-rule="evenodd" clip-rule="evenodd" d="M42.8571 279.706H64.2857V258.259H42.8571V279.706Z" fill="#161616"/>
<path fill-rule="evenodd" clip-rule="evenodd" d="M85.7143 279.706H107.143V258.259H85.7143V279.706Z" fill="#161616"/>
<path fill-rule="evenodd" clip-rule="evenodd" d="M42.8571 322.6H64.2857V301.153H42.8571V322.6Z" fill="#161616"/>
<path fill-rule="evenodd" clip-rule="evenodd" d="M85.7143 322.6H107.143V301.153H85.7143V322.6Z" fill="#161616"/>
<path fill-rule="evenodd" clip-rule="evenodd" d="M171.429 193.918H192.857V172.471H171.429V193.918Z" fill="#161616"/>
<path fill-rule="evenodd" clip-rule="evenodd" d="M171.429 151.023H192.857V129.576H171.429V151.023Z" fill="#161616"/>
<path fill-rule="evenodd" clip-rule="evenodd" d="M171.429 236.812H192.857V215.365H171.429V236.812Z" fill="#161616"/>
<path fill-rule="evenodd" clip-rule="evenodd" d="M192.857 172.471H214.286V151.023H192.857V172.471Z" fill="#161616"/>
<path fill-rule="evenodd" clip-rule="evenodd" d="M192.857 215.365H214.286V193.918H192.857V215.365Z" fill="#161616"/>
<path fill-rule="evenodd" clip-rule="evenodd" d="M214.286 193.918H235.714V172.471H214.286V193.918Z" fill="#161616"/>
<path fill-rule="evenodd" clip-rule="evenodd" d="M214.286 151.023H235.714V129.576H214.286V151.023Z" fill="#161616"/>
<path fill-rule="evenodd" clip-rule="evenodd" d="M235.714 172.471H257.143V151.023H235.714V172.471Z" fill="#161616"/>
<path fill-rule="evenodd" clip-rule="evenodd" d="M257.143 151.023H278.571V129.576H257.143V151.023Z" fill="#161616"/>
<path fill-rule="evenodd" clip-rule="evenodd" d="M107.143 301.153H128.571V279.706H107.143V301.153Z" fill="#161616"/>
<path fill-rule="evenodd" clip-rule="evenodd" d="M128.571 322.6H150V301.153H128.571V322.6Z" fill="#161616"/>
<path fill-rule="evenodd" clip-rule="evenodd" d="M128.571 322.6H150V301.153H128.571V322.6Z" fill="#161616"/>
<path fill-rule="evenodd" clip-rule="evenodd" d="M128.571 279.706H150V258.259H128.571V279.706Z" fill="#161616"/>
<path fill-rule="evenodd" clip-rule="evenodd" d="M64.2857 86.6823H85.7143V65.2353H64.2857V86.6823Z" fill="#161616"/>
<path fill-rule="evenodd" clip-rule="evenodd" d="M64.2857 129.576H85.7143V108.129H64.2857V129.576Z" fill="#161616"/>
<path fill-rule="evenodd" clip-rule="evenodd" d="M85.7143 108.129H107.143V86.6823H85.7143V108.129Z" fill="#161616"/>
<path fill-rule="evenodd" clip-rule="evenodd" d="M107.143 86.6823H128.571V65.2353H107.143V86.6823Z" fill="#161616"/>
<path fill-rule="evenodd" clip-rule="evenodd" d="M107.143 129.576H128.571V108.129H107.143V129.576Z" fill="#161616"/>
<path fill-rule="evenodd" clip-rule="evenodd" d="M128.571 108.129H150V86.6823H128.571V108.129Z" fill="#161616"/>
<path fill-rule="evenodd" clip-rule="evenodd" d="M128.571 65.2353H150V43.7882H128.571V65.2353Z" fill="#161616"/>
<path fill-rule="evenodd" clip-rule="evenodd" d="M150 86.6823H171.429V65.2353H150V86.6823Z" fill="#161616"/>
<path fill-rule="evenodd" clip-rule="evenodd" d="M150 129.576H171.429V108.129H150V129.576Z" fill="#161616"/>
<path fill-rule="evenodd" clip-rule="evenodd" d="M171.429 108.129H192.857V86.6823H171.429V108.129Z" fill="#161616"/>
<path fill-rule="evenodd" clip-rule="evenodd" d="M171.429 65.2353H192.857V43.7882H171.429V65.2353Z" fill="#161616"/>
<path fill-rule="evenodd" clip-rule="evenodd" d="M192.857 86.6823H214.286V65.2353H192.857V86.6823Z" fill="#161616"/>
<path fill-rule="evenodd" clip-rule="evenodd" d="M192.857 129.576H214.286V108.129H192.857V129.576Z" fill="#161616"/>
<path fill-rule="evenodd" clip-rule="evenodd" d="M214.286 108.129H235.714V86.6823H214.286V108.129Z" fill="#161616"/>
<path fill-rule="evenodd" clip-rule="evenodd" d="M235.714 86.6823H257.143V65.2353H235.714V86.6823Z" fill="#161616"/>
<path fill-rule="evenodd" clip-rule="evenodd" d="M235.714 129.576H257.143V108.129H235.714V129.576Z" fill="#161616"/>
<path fill-rule="evenodd" clip-rule="evenodd" d="M150 43.7882H171.429V22.3412H150V43.7882Z" fill="#161616"/>
<path fill-rule="evenodd" clip-rule="evenodd" d="M192.857 22.3412H171.429V0.894104L192.857 22.3412Z" fill="#161616"/>
<path fill-rule="evenodd" clip-rule="evenodd" d="M64.2857 86.68V108.129H42.8571L64.2857 86.68Z" fill="#161616"/>
<path fill-rule="evenodd" clip-rule="evenodd" d="M257.143 108.129H278.571V86.6823H257.143V108.129Z" fill="#161616"/>
<path fill-rule="evenodd" clip-rule="evenodd" d="M278.571 129.576H300V108.129H278.571V129.576Z" fill="#161616"/>
<path fill-rule="evenodd" clip-rule="evenodd" d="M300 108.129H321.429V86.6823H300V108.129Z" fill="#161616"/>
<path fill-rule="evenodd" clip-rule="evenodd" d="M321.429 129.576H342.857V108.129H321.429V129.576Z" fill="#161616"/>
<path fill-rule="evenodd" clip-rule="evenodd" d="M364.286 108.129H342.857V86.6823L364.286 108.129Z" fill="#161616"/>
<path fill-rule="evenodd" clip-rule="evenodd" d="M300 86.6823H278.571L300 65.2353V86.6823Z" fill="#161616"/>
<path fill-rule="evenodd" clip-rule="evenodd" d="M300 151.023H321.429V129.576H300V151.023Z" fill="#161616"/>
<path fill-rule="evenodd" clip-rule="evenodd" d="M342.857 151.023H364.286V129.576H342.857V151.023Z" fill="#161616"/>
<path fill-rule="evenodd" clip-rule="evenodd" d="M364.286 129.576H385.714V108.129H364.286V129.576Z" fill="#161616"/>
<path fill-rule="evenodd" clip-rule="evenodd" d="M385.714 151.023H407.143V129.576H385.714V151.023Z" fill="#161616"/>
<path fill-rule="evenodd" clip-rule="evenodd" d="M364.286 172.471V151.023H385.714L364.286 172.471Z" fill="#161616"/>
<path fill-rule="evenodd" clip-rule="evenodd" d="M278.571 172.471H300V151.023H278.571V172.471Z" fill="#161616"/>
<path fill-rule="evenodd" clip-rule="evenodd" d="M0 193.918H21.4286V172.471H0V193.918Z" fill="#161616"/>
</svg>
