<svg width="172" height="258" viewBox="0 0 172 258" fill="none" xmlns="http://www.w3.org/2000/svg">
<path fill-rule="evenodd" clip-rule="evenodd" d="M85.8571 21.8351H107.286V0.388062H85.8571V21.8351Z" fill="black"/>
<path fill-rule="evenodd" clip-rule="evenodd" d="M43 21.8351H64.4286V0.388062H43V21.8351Z" fill="black"/>
<path fill-rule="evenodd" clip-rule="evenodd" d="M107.286 43.2822H128.714V21.8351H107.286V43.2822Z" fill="black"/>
<path fill-rule="evenodd" clip-rule="evenodd" d="M64.4286 43.2822H85.8571V21.8351H64.4286V43.2822Z" fill="black"/>
<path fill-rule="evenodd" clip-rule="evenodd" d="M21.5714 43.2822H43V21.8351H21.5714V43.2822Z" fill="black"/>
<path fill-rule="evenodd" clip-rule="evenodd" d="M85.8571 64.7293H107.286V43.2822H85.8571V64.7293Z" fill="black"/>
<path fill-rule="evenodd" clip-rule="evenodd" d="M43 64.7293H64.4286V43.2822H43V64.7293Z" fill="black"/>
<path fill-rule="evenodd" clip-rule="evenodd" d="M0.142853 64.7293H21.5714V43.2822H0.142853V64.7293Z" fill="black"/>
<path fill-rule="evenodd" clip-rule="evenodd" d="M128.714 64.7293H150.143V43.2822H128.714V64.7293Z" fill="black"/>
<path fill-rule="evenodd" clip-rule="evenodd" d="M107.286 86.1763H128.714V64.7292H107.286V86.1763Z" fill="black"/>
<path fill-rule="evenodd" clip-rule="evenodd" d="M64.4286 86.1763H85.8571V64.7292H64.4286V86.1763Z" fill="black"/>
<path fill-rule="evenodd" clip-rule="evenodd" d="M43 86.1763L21.5714 64.7292H43V86.1763Z" fill="black"/>
<path fill-rule="evenodd" clip-rule="evenodd" d="M85.8571 107.623H107.286V86.1763H85.8571V107.623Z" fill="black"/>
<path fill-rule="evenodd" clip-rule="evenodd" d="M64.4286 107.623L43 86.1763H64.4286V107.623Z" fill="black"/>
<path fill-rule="evenodd" clip-rule="evenodd" d="M128.714 107.623H150.143V86.1763H128.714V107.623Z" fill="black"/>
<path fill-rule="evenodd" clip-rule="evenodd" d="M150.143 86.1763H171.571V64.7292H150.143V86.1763Z" fill="black"/>
<path fill-rule="evenodd" clip-rule="evenodd" d="M107.286 129.07H128.714V107.623H107.286V129.07Z" fill="black"/>
<path fill-rule="evenodd" clip-rule="evenodd" d="M64.4286 129.07H85.8571V107.623H64.4286V129.07Z" fill="black"/>
<path fill-rule="evenodd" clip-rule="evenodd" d="M85.8571 150.517H107.286V129.07H85.8571V150.517Z" fill="black"/>
<path fill-rule="evenodd" clip-rule="evenodd" d="M107.286 171.964V150.517H128.714L107.286 171.964Z" fill="black"/>
<path fill-rule="evenodd" clip-rule="evenodd" d="M64.4286 171.964H85.8571V150.517H64.4286V171.964Z" fill="black"/>
<path fill-rule="evenodd" clip-rule="evenodd" d="M85.8571 193.412H107.286V171.964H85.8571V193.412Z" fill="black"/>
<path fill-rule="evenodd" clip-rule="evenodd" d="M43 193.412H64.4286V171.964H43V193.412Z" fill="black"/>
<path fill-rule="evenodd" clip-rule="evenodd" d="M64.4286 214.859H85.8571V193.412H64.4286V214.859Z" fill="black"/>
<path fill-rule="evenodd" clip-rule="evenodd" d="M43 236.306H64.4286V214.859H43V236.306Z" fill="black"/>
<path fill-rule="evenodd" clip-rule="evenodd" d="M64.4286 257.753H85.8556V236.306H64.4286V257.753Z" fill="black"/>
<path fill-rule="evenodd" clip-rule="evenodd" d="M128.714 21.8351H107.286V0.388062L128.714 21.8351Z" fill="#161616"/>
<path fill-rule="evenodd" clip-rule="evenodd" d="M21.5714 21.8351H43V0.388062H21.5714V21.8351Z" fill="#161616"/>
<path fill-rule="evenodd" clip-rule="evenodd" d="M64.4286 21.8351H85.8571V0.388062H64.4286V21.8351Z" fill="#161616"/>
<path fill-rule="evenodd" clip-rule="evenodd" d="M150.143 43.2822H128.714V21.8351L150.143 43.2822Z" fill="#161616"/>
<path fill-rule="evenodd" clip-rule="evenodd" d="M85.8571 43.2822H107.286V21.8351H85.8571V43.2822Z" fill="#161616"/>
<path fill-rule="evenodd" clip-rule="evenodd" d="M43 43.2822H64.4286V21.8351H43V43.2822Z" fill="#161616"/>
<path fill-rule="evenodd" clip-rule="evenodd" d="M107.286 64.7293H128.714V43.2822H107.286V64.7293Z" fill="#161616"/>
<path fill-rule="evenodd" clip-rule="evenodd" d="M64.4286 64.7293H85.8571V43.2822H64.4286V64.7293Z" fill="#161616"/>
<path fill-rule="evenodd" clip-rule="evenodd" d="M150.143 64.7293H171.571V43.2822H150.143V64.7293Z" fill="#161616"/>
<path fill-rule="evenodd" clip-rule="evenodd" d="M21.5714 64.7293H43V43.2822H21.5714V64.7293Z" fill="#161616"/>
<path fill-rule="evenodd" clip-rule="evenodd" d="M21.5714 43.2822H0.142853L21.5714 21.8351V43.2822Z" fill="#161616"/>
<path fill-rule="evenodd" clip-rule="evenodd" d="M128.714 86.1763H150.143V64.7292H128.714V86.1763Z" fill="#161616"/>
<path fill-rule="evenodd" clip-rule="evenodd" d="M85.8571 86.1763H107.286V64.7292H85.8571V86.1763Z" fill="#161616"/>
<path fill-rule="evenodd" clip-rule="evenodd" d="M43 86.1763H64.4286V64.7292H43V86.1763Z" fill="#161616"/>
<path fill-rule="evenodd" clip-rule="evenodd" d="M107.286 107.623H128.714V86.1763H107.286V107.623Z" fill="#161616"/>
<path fill-rule="evenodd" clip-rule="evenodd" d="M64.4286 107.623H85.8571V86.1763H64.4286V107.623Z" fill="#161616"/>
<path fill-rule="evenodd" clip-rule="evenodd" d="M128.714 129.07H150.143V107.623H128.714V129.07Z" fill="#161616"/>
<path fill-rule="evenodd" clip-rule="evenodd" d="M85.8571 129.07H107.286V107.623H85.8571V129.07Z" fill="#161616"/>
<path fill-rule="evenodd" clip-rule="evenodd" d="M107.286 150.517H128.714V129.07H107.286V150.517Z" fill="#161616"/>
<path fill-rule="evenodd" clip-rule="evenodd" d="M64.4286 150.517H85.8571V129.07H64.4286V150.517Z" fill="#161616"/>
<path fill-rule="evenodd" clip-rule="evenodd" d="M85.8571 171.964H107.286V150.517H85.8571V171.964Z" fill="#161616"/>
<path fill-rule="evenodd" clip-rule="evenodd" d="M64.4286 171.964H43L64.4286 150.517V171.964Z" fill="#161616"/>
<path fill-rule="evenodd" clip-rule="evenodd" d="M64.4286 193.412H85.8571V171.964H64.4286V193.412Z" fill="#161616"/>
<path fill-rule="evenodd" clip-rule="evenodd" d="M85.8571 214.859V193.412H107.286L85.8571 214.859Z" fill="#161616"/>
<path fill-rule="evenodd" clip-rule="evenodd" d="M43 214.859H64.4286V193.412H43V214.859Z" fill="#161616"/>
<path fill-rule="evenodd" clip-rule="evenodd" d="M64.4286 236.306H85.8571V214.859H64.4286V236.306Z" fill="#161616"/>
<path fill-rule="evenodd" clip-rule="evenodd" d="M43.0003 236.305L64.4273 257.752V236.305H43.0003Z" fill="#161616"/>
</svg>
